<svg xmlns="http://www.w3.org/2000/svg" width="1200" height="540" viewBox="0 0 1200 540" role="img" aria-labelledby="title desc"><title id="title">Capability maturity</title><desc id="desc">Transparent maturity matrix separating research, prototype, integrated, and verified states.</desc>
<rect width="1200" height="540" rx="18" fill="#05080b"/><rect x="1" y="1" width="1198" height="538" rx="17" fill="none" stroke="#26333e"/>
<text x="56" y="50" fill="#7f8d99" font-family="ui-monospace,Consolas,monospace" font-size="11" letter-spacing="2">CAPABILITY MATURITY / TRUTHFUL DISCLOSURE</text><text x="720" y="82" text-anchor="middle" fill="#7f8d99" font-family="ui-monospace,Consolas,monospace" font-size="9" letter-spacing="1">RESEARCH</text><text x="840" y="82" text-anchor="middle" fill="#7f8d99" font-family="ui-monospace,Consolas,monospace" font-size="9" letter-spacing="1">PROTOTYPE</text><text x="960" y="82" text-anchor="middle" fill="#7f8d99" font-family="ui-monospace,Consolas,monospace" font-size="9" letter-spacing="1">INTEGRATED</text><text x="1080" y="82" text-anchor="middle" fill="#7f8d99" font-family="ui-monospace,Consolas,monospace" font-size="9" letter-spacing="1">VERIFIED</text><path d="M56 96H1144" stroke="#26333e"/><text x="56" y="130" fill="#f5f7f8" font-family="Inter,system-ui,sans-serif" font-size="13">Autonomous runtime</text><circle cx="720" cy="125" r="7" fill="#2ad7b5" stroke="#2ad7b5"/><circle cx="840" cy="125" r="7" fill="#2ad7b5" stroke="#2ad7b5"/><circle cx="960" cy="125" r="7" fill="#2ad7b5" stroke="#2ad7b5"/><circle cx="1080" cy="125" r="7" fill="#2ad7b5" stroke="#2ad7b5"/><text x="56" y="178" fill="#f5f7f8" font-family="Inter,system-ui,sans-serif" font-size="13">Mobility platform</text><circle cx="720" cy="173" r="7" fill="#2ad7b5" stroke="#2ad7b5"/><circle cx="840" cy="173" r="7" fill="#2ad7b5" stroke="#2ad7b5"/><circle cx="960" cy="173" r="7" fill="#2ad7b5" stroke="#2ad7b5"/><circle cx="1080" cy="173" r="7" fill="#101920" stroke="#26333e"/><text x="56" y="226" fill="#f5f7f8" font-family="Inter,system-ui,sans-serif" font-size="13">Realtime interaction</text><circle cx="720" cy="221" r="7" fill="#2ad7b5" stroke="#2ad7b5"/><circle cx="840" cy="221" r="7" fill="#2ad7b5" stroke="#2ad7b5"/><circle cx="960" cy="221" r="7" fill="#2ad7b5" stroke="#2ad7b5"/><circle cx="1080" cy="221" r="7" fill="#2ad7b5" stroke="#2ad7b5"/><text x="56" y="274" fill="#f5f7f8" font-family="Inter,system-ui,sans-serif" font-size="13">Native DSP</text><circle cx="720" cy="269" r="7" fill="#2ad7b5" stroke="#2ad7b5"/><circle cx="840" cy="269" r="7" fill="#2ad7b5" stroke="#2ad7b5"/><circle cx="960" cy="269" r="7" fill="#2ad7b5" stroke="#2ad7b5"/><circle cx="1080" cy="269" r="7" fill="#101920" stroke="#26333e"/><text x="56" y="322" fill="#f5f7f8" font-family="Inter,system-ui,sans-serif" font-size="13">RF sensing</text><circle cx="720" cy="317" r="7" fill="#2ad7b5" stroke="#2ad7b5"/><circle cx="840" cy="317" r="7" fill="#2ad7b5" stroke="#2ad7b5"/><circle cx="960" cy="317" r="7" fill="#101920" stroke="#26333e"/><circle cx="1080" cy="317" r="7" fill="#101920" stroke="#26333e"/><text x="56" y="370" fill="#f5f7f8" font-family="Inter,system-ui,sans-serif" font-size="13">Recovery/forensics</text><circle cx="720" cy="365" r="7" fill="#2ad7b5" stroke="#2ad7b5"/><circle cx="840" cy="365" r="7" fill="#2ad7b5" stroke="#2ad7b5"/><circle cx="960" cy="365" r="7" fill="#2ad7b5" stroke="#2ad7b5"/><circle cx="1080" cy="365" r="7" fill="#2ad7b5" stroke="#2ad7b5"/><text x="56" y="418" fill="#f5f7f8" font-family="Inter,system-ui,sans-serif" font-size="13">UI quality automation</text><circle cx="720" cy="413" r="7" fill="#2ad7b5" stroke="#2ad7b5"/><circle cx="840" cy="413" r="7" fill="#2ad7b5" stroke="#2ad7b5"/><circle cx="960" cy="413" r="7" fill="#2ad7b5" stroke="#2ad7b5"/><circle cx="1080" cy="413" r="7" fill="#2ad7b5" stroke="#2ad7b5"/><text x="56" y="466" fill="#f5f7f8" font-family="Inter,system-ui,sans-serif" font-size="13">Blockchain systems</text><circle cx="720" cy="461" r="7" fill="#2ad7b5" stroke="#2ad7b5"/><circle cx="840" cy="461" r="7" fill="#2ad7b5" stroke="#2ad7b5"/><circle cx="960" cy="461" r="7" fill="#101920" stroke="#26333e"/><circle cx="1080" cy="461" r="7" fill="#101920" stroke="#26333e"/>
<text x="56" y="514" fill="#7f8d99" font-family="Inter,system-ui,sans-serif" font-size="11">Research is not presented as production. Verification requires inspectable evidence.</text>
</svg>