<svg xmlns="http://www.w3.org/2000/svg" width="1200" height="450" viewBox="0 0 1200 450" role="img" aria-labelledby="title desc"><title id="title">Blockchain proof fabric</title><desc id="desc">Five chained receipts aggregate into one Merkle proof root.</desc>
<rect width="1200" height="450" rx="18" fill="#edf1f3"/><rect x="1" y="1" width="1198" height="448" rx="17" fill="none" stroke="#c7d1d7"/>
<text x="56" y="52" fill="#16784d" font-family="ui-monospace,Consolas,monospace" font-size="11" letter-spacing="2">BLOCKCHAIN PROOF FABRIC / RESEARCH</text>
<text x="56" y="90" fill="#11181d" font-family="Inter,system-ui,sans-serif" font-size="27" font-weight="720">Cryptographic receipts, not decorative Web3.</text>
<g><path d="M130 320C130 270 235 248 235 215" fill="none" stroke="#16784d" stroke-opacity=".42"/><path d="M340 320C340 270 235 248 235 215" fill="none" stroke="#16784d" stroke-opacity=".42"/><path d="M550 320C550 270 655 248 655 215" fill="none" stroke="#16784d" stroke-opacity=".42"/><path d="M760 320C760 270 655 248 655 215" fill="none" stroke="#16784d" stroke-opacity=".42"/><path d="M970 320C970 270 970 248 970 215" fill="none" stroke="#16784d" stroke-opacity=".42"/><path d="M235 185C235 145 445 130 445 100" fill="none" stroke="#16784d" stroke-opacity=".42"/><path d="M655 185C655 145 445 130 445 100" fill="none" stroke="#16784d" stroke-opacity=".42"/><path d="M970 185C970 145 775 130 775 100" fill="none" stroke="#16784d" stroke-opacity=".42"/><path d="M445 70C445 42 610 42 610 28" fill="none" stroke="#16784d" stroke-opacity=".65"/><path d="M775 70C775 42 610 42 610 28" fill="none" stroke="#16784d" stroke-opacity=".65"/></g>
<g transform="translate(540 18)"><rect width="140" height="56" rx="12" fill="#ffffff" stroke="#16784d"/><text x="70" y="25" text-anchor="middle" fill="#11181d" font-family="ui-monospace,Consolas,monospace" font-size="10">MERKLE ROOT</text><text x="70" y="42" text-anchor="middle" fill="#16784d" font-family="ui-monospace,Consolas,monospace" font-size="8">A17F90D4…</text></g>
<g transform="translate(375 82)"><rect width="140" height="56" rx="12" fill="#ffffff" stroke="#c7d1d7"/><text x="70" y="32" text-anchor="middle" fill="#687782" font-family="ui-monospace,Consolas,monospace" font-size="9">AGGREGATE 01</text></g><g transform="translate(705 82)"><rect width="140" height="56" rx="12" fill="#ffffff" stroke="#c7d1d7"/><text x="70" y="32" text-anchor="middle" fill="#687782" font-family="ui-monospace,Consolas,monospace" font-size="9">AGGREGATE 02</text></g>
<g transform="translate(165 187)"><rect width="140" height="56" rx="12" fill="#ffffff" stroke="#c7d1d7"/><text x="70" y="32" text-anchor="middle" fill="#687782" font-family="ui-monospace,Consolas,monospace" font-size="9">PAIR 01</text></g><g transform="translate(585 187)"><rect width="140" height="56" rx="12" fill="#ffffff" stroke="#c7d1d7"/><text x="70" y="32" text-anchor="middle" fill="#687782" font-family="ui-monospace,Consolas,monospace" font-size="9">PAIR 02</text></g><g transform="translate(900 187)"><rect width="140" height="56" rx="12" fill="#ffffff" stroke="#c7d1d7"/><text x="70" y="32" text-anchor="middle" fill="#687782" font-family="ui-monospace,Consolas,monospace" font-size="9">PAIR 03</text></g>
<g transform="translate(60 320)"><rect width="140" height="64" rx="11" fill="#ffffff" stroke="#c7d1d7"/><text x="70" y="27" text-anchor="middle" fill="#11181d" font-family="ui-monospace,Consolas,monospace" font-size="10">RECEIPT 01</text><text x="70" y="45" text-anchor="middle" fill="#16784d" font-family="ui-monospace,Consolas,monospace" font-size="8">5feceb66ff…</text></g><g transform="translate(270 320)"><rect width="140" height="64" rx="11" fill="#ffffff" stroke="#c7d1d7"/><text x="70" y="27" text-anchor="middle" fill="#11181d" font-family="ui-monospace,Consolas,monospace" font-size="10">RECEIPT 02</text><text x="70" y="45" text-anchor="middle" fill="#16784d" font-family="ui-monospace,Consolas,monospace" font-size="8">6b86b273ff…</text></g><g transform="translate(480 320)"><rect width="140" height="64" rx="11" fill="#ffffff" stroke="#c7d1d7"/><text x="70" y="27" text-anchor="middle" fill="#11181d" font-family="ui-monospace,Consolas,monospace" font-size="10">RECEIPT 03</text><text x="70" y="45" text-anchor="middle" fill="#16784d" font-family="ui-monospace,Consolas,monospace" font-size="8">d4735e3a26…</text></g><g transform="translate(690 320)"><rect width="140" height="64" rx="11" fill="#ffffff" stroke="#c7d1d7"/><text x="70" y="27" text-anchor="middle" fill="#11181d" font-family="ui-monospace,Consolas,monospace" font-size="10">RECEIPT 04</text><text x="70" y="45" text-anchor="middle" fill="#16784d" font-family="ui-monospace,Consolas,monospace" font-size="8">4e07408562…</text></g><g transform="translate(900 320)"><rect width="140" height="64" rx="11" fill="#ffffff" stroke="#c7d1d7"/><text x="70" y="27" text-anchor="middle" fill="#11181d" font-family="ui-monospace,Consolas,monospace" font-size="10">RECEIPT 05</text><text x="70" y="45" text-anchor="middle" fill="#16784d" font-family="ui-monospace,Consolas,monospace" font-size="8">4b227777d4…</text></g>
<text x="56" y="422" fill="#687782" font-family="Inter,system-ui,sans-serif" font-size="11">SHA-256 · Chained receipts · Merkle aggregation · Tamper propagation · No wallet or financial interaction</text>
</svg>