<svg xmlns="http://www.w3.org/2000/svg" width="1200" height="430" viewBox="0 0 1200 430" role="img" aria-labelledby="title desc"><title id="title">MAYA Codex Nexus</title><desc id="desc">Instruction becomes inspectable evidence through six authoritative phases.</desc>
<defs><linearGradient id="g" x1="0" y1="0" x2="1" y2="0"><stop stop-color="#087c6b"/><stop offset="1" stop-color="#1769aa"/></linearGradient></defs>
<rect width="1200" height="430" rx="18" fill="#edf1f3"/><rect x="1" y="1" width="1198" height="428" rx="17" fill="none" stroke="#c7d1d7"/>
<text x="56" y="54" fill="#687782" font-family="ui-monospace,Consolas,monospace" font-size="11" letter-spacing="2">MAYA CODEX NEXUS / PROOF CONTINUUM</text>
<text x="56" y="98" fill="#11181d" font-family="Inter,system-ui,sans-serif" font-size="30" font-weight="720">A mission becomes inspectable evidence.</text>
<text x="56" y="130" fill="#687782" font-family="Inter,system-ui,sans-serif" font-size="14">One runtime object connects intent, safe cognition, action, artifacts, verification, and receipts.</text>
<path d="M100 234H1100" stroke="url(#g)" stroke-width="2" stroke-dasharray="12 10"/>
<g transform="translate(76 206)"><rect width="148" height="154" rx="14" fill="#ffffff" stroke="#c7d1d7"/><circle cx="24" cy="28" r="9" fill="#ffffff" stroke="#087c6b" stroke-width="2"/><text x="24" y="32" text-anchor="middle" fill="#087c6b" font-family="ui-monospace,Consolas,monospace" font-size="8">01</text><text x="18" y="80" fill="#11181d" font-family="Inter,system-ui,sans-serif" font-size="15" font-weight="700">OBSERVE</text><text x="18" y="105" fill="#687782" font-family="Inter,system-ui,sans-serif" font-size="11">Acquire truth</text><path d="M18 128H130" stroke="#087c6b" stroke-opacity=".28"/></g><g transform="translate(250 206)"><rect width="148" height="154" rx="14" fill="#ffffff" stroke="#c7d1d7"/><circle cx="24" cy="28" r="9" fill="#ffffff" stroke="#087c6b" stroke-width="2"/><text x="24" y="32" text-anchor="middle" fill="#087c6b" font-family="ui-monospace,Consolas,monospace" font-size="8">02</text><text x="18" y="80" fill="#11181d" font-family="Inter,system-ui,sans-serif" font-size="15" font-weight="700">FRAME</text><text x="18" y="105" fill="#687782" font-family="Inter,system-ui,sans-serif" font-size="11">Model mission</text><path d="M18 128H130" stroke="#087c6b" stroke-opacity=".28"/></g><g transform="translate(424 206)"><rect width="148" height="154" rx="14" fill="#ffffff" stroke="#c7d1d7"/><circle cx="24" cy="28" r="9" fill="#ffffff" stroke="#087c6b" stroke-width="2"/><text x="24" y="32" text-anchor="middle" fill="#087c6b" font-family="ui-monospace,Consolas,monospace" font-size="8">03</text><text x="18" y="80" fill="#11181d" font-family="Inter,system-ui,sans-serif" font-size="15" font-weight="700">DECIDE</text><text x="18" y="105" fill="#687782" font-family="Inter,system-ui,sans-serif" font-size="11">Commit path</text><path d="M18 128H130" stroke="#087c6b" stroke-opacity=".28"/></g><g transform="translate(598 206)"><rect width="148" height="154" rx="14" fill="#ffffff" stroke="#c7d1d7"/><circle cx="24" cy="28" r="9" fill="#ffffff" stroke="#087c6b" stroke-width="2"/><text x="24" y="32" text-anchor="middle" fill="#087c6b" font-family="ui-monospace,Consolas,monospace" font-size="8">04</text><text x="18" y="80" fill="#11181d" font-family="Inter,system-ui,sans-serif" font-size="15" font-weight="700">ACT</text><text x="18" y="105" fill="#687782" font-family="Inter,system-ui,sans-serif" font-size="11">Execute safely</text><path d="M18 128H130" stroke="#087c6b" stroke-opacity=".28"/></g><g transform="translate(772 206)"><rect width="148" height="154" rx="14" fill="#ffffff" stroke="#c7d1d7"/><circle cx="24" cy="28" r="9" fill="#ffffff" stroke="#087c6b" stroke-width="2"/><text x="24" y="32" text-anchor="middle" fill="#087c6b" font-family="ui-monospace,Consolas,monospace" font-size="8">05</text><text x="18" y="80" fill="#11181d" font-family="Inter,system-ui,sans-serif" font-size="15" font-weight="700">VERIFY</text><text x="18" y="105" fill="#687782" font-family="Inter,system-ui,sans-serif" font-size="11">Challenge claim</text><path d="M18 128H130" stroke="#087c6b" stroke-opacity=".28"/></g><g transform="translate(946 206)"><rect width="148" height="154" rx="14" fill="#ffffff" stroke="#c7d1d7"/><circle cx="24" cy="28" r="9" fill="#ffffff" stroke="#087c6b" stroke-width="2"/><text x="24" y="32" text-anchor="middle" fill="#087c6b" font-family="ui-monospace,Consolas,monospace" font-size="8">06</text><text x="18" y="80" fill="#11181d" font-family="Inter,system-ui,sans-serif" font-size="15" font-weight="700">RECEIPT</text><text x="18" y="105" fill="#687782" font-family="Inter,system-ui,sans-serif" font-size="11">Persist proof</text><path d="M18 128H130" stroke="#087c6b" stroke-opacity=".28"/></g>
<circle cx="56" cy="398" r="5" fill="#087c6b"/><text x="72" y="402" fill="#687782" font-family="ui-monospace,Consolas,monospace" font-size="9">RAW PRIVATE REASONING SUPPRESSED · DISPLAY-SAFE COGNITION · EXACT EVIDENCE ORIGIN</text>
</svg>