<svg xmlns="http://www.w3.org/2000/svg" width="1200" height="610" viewBox="0 0 1200 610" role="img" aria-labelledby="title desc"><title id="title">Systems Atlas</title><desc id="desc">Nine operational worlds connected by one engineering standard.</desc>
<rect width="1200" height="610" rx="18" fill="#edf1f3"/><rect x="1" y="1" width="1198" height="608" rx="17" fill="none" stroke="#c7d1d7"/>
<text x="56" y="50" fill="#687782" font-family="ui-monospace,Consolas,monospace" font-size="11" letter-spacing="2">SYSTEMS ATLAS / NINE OPERATIONAL WORLDS</text>
<text x="56" y="88" fill="#11181d" font-family="Inter,system-ui,sans-serif" font-size="27" font-weight="720">One engineering standard across nine product domains.</text>
<g stroke-width="1.5"><path d="M600 290L335 120" stroke="#75BAFF" stroke-opacity=".24"/><path d="M600 290L865 118" stroke="#F1B85B" stroke-opacity=".24"/><path d="M600 290L1000 285" stroke="#B79CFF" stroke-opacity=".24"/><path d="M600 290L858 458" stroke="#58D6E7" stroke-opacity=".24"/><path d="M600 290L600 500" stroke="#FF9C67" stroke-opacity=".24"/><path d="M600 290L340 458" stroke="#54D99A" stroke-opacity=".24"/><path d="M600 290L205 286" stroke="#C895FF" stroke-opacity=".24"/><path d="M600 290L600 92" stroke="#37E5A2" stroke-opacity=".24"/></g><g transform="translate(488.0 243.0)"><rect width="224" height="94" rx="14" fill="#ffffff" stroke="#2AD7B5" stroke-opacity=".65"/><text x="18" y="29" fill="#94a0a8" font-family="ui-monospace,Consolas,monospace" font-size="8">01 · AUTONOMOUS ENGINEERING</text><text x="18" y="53" fill="#11181d" font-family="Inter,system-ui,sans-serif" font-size="14" font-weight="700">MAYA</text><text x="18" y="76" fill="#687782" font-family="ui-monospace,Consolas,monospace" font-size="8">FLAGSHIP / 6.6.1</text><circle cx="206" cy="20" r="4" fill="#2AD7B5"/></g><g transform="translate(240.0 84.0)"><rect width="190" height="72" rx="14" fill="#ffffff" stroke="#75BAFF" stroke-opacity=".65"/><text x="18" y="29" fill="#94a0a8" font-family="ui-monospace,Consolas,monospace" font-size="8">02 · MOBILITY PLATFORM</text><text x="18" y="53" fill="#11181d" font-family="Inter,system-ui,sans-serif" font-size="14" font-weight="700">VOZIME</text><circle cx="172" cy="20" r="4" fill="#75BAFF"/></g><g transform="translate(770.0 82.0)"><rect width="190" height="72" rx="14" fill="#ffffff" stroke="#F1B85B" stroke-opacity=".65"/><text x="18" y="29" fill="#94a0a8" font-family="ui-monospace,Consolas,monospace" font-size="8">03 · REALTIME INTERACTION</text><text x="18" y="53" fill="#11181d" font-family="Inter,system-ui,sans-serif" font-size="14" font-weight="700">AURELIS</text><circle cx="172" cy="20" r="4" fill="#F1B85B"/></g><g transform="translate(905.0 249.0)"><rect width="190" height="72" rx="14" fill="#ffffff" stroke="#B79CFF" stroke-opacity=".65"/><text x="18" y="29" fill="#94a0a8" font-family="ui-monospace,Consolas,monospace" font-size="8">04 · NATIVE AUDIO WORKSTATION</text><text x="18" y="53" fill="#11181d" font-family="Inter,system-ui,sans-serif" font-size="14" font-weight="700">DERAMA</text><circle cx="172" cy="20" r="4" fill="#B79CFF"/></g><g transform="translate(763.0 422.0)"><rect width="190" height="72" rx="14" fill="#ffffff" stroke="#58D6E7" stroke-opacity=".65"/><text x="18" y="29" fill="#94a0a8" font-family="ui-monospace,Consolas,monospace" font-size="8">05 · RF SENSING RESEARCH</text><text x="18" y="53" fill="#11181d" font-family="Inter,system-ui,sans-serif" font-size="14" font-weight="700">AETHER RF</text><circle cx="172" cy="20" r="4" fill="#58D6E7"/></g><g transform="translate(505.0 464.0)"><rect width="190" height="72" rx="14" fill="#ffffff" stroke="#FF9C67" stroke-opacity=".65"/><text x="18" y="29" fill="#94a0a8" font-family="ui-monospace,Consolas,monospace" font-size="8">06 · RECOVERY AND FORENSICS</text><text x="18" y="53" fill="#11181d" font-family="Inter,system-ui,sans-serif" font-size="14" font-weight="700">CREDTRACE</text><circle cx="172" cy="20" r="4" fill="#FF9C67"/></g><g transform="translate(245.0 422.0)"><rect width="190" height="72" rx="14" fill="#ffffff" stroke="#54D99A" stroke-opacity=".65"/><text x="18" y="29" fill="#94a0a8" font-family="ui-monospace,Consolas,monospace" font-size="8">07 · QUALITY AUTOMATION</text><text x="18" y="53" fill="#11181d" font-family="Inter,system-ui,sans-serif" font-size="14" font-weight="700">UI DEBUG</text><circle cx="172" cy="20" r="4" fill="#54D99A"/></g><g transform="translate(110.0 250.0)"><rect width="190" height="72" rx="14" fill="#ffffff" stroke="#C895FF" stroke-opacity=".65"/><text x="18" y="29" fill="#94a0a8" font-family="ui-monospace,Consolas,monospace" font-size="8">08 · DSP AND SYNTHESIS</text><text x="18" y="53" fill="#11181d" font-family="Inter,system-ui,sans-serif" font-size="14" font-weight="700">AETHER AUDIO</text><circle cx="172" cy="20" r="4" fill="#C895FF"/></g><g transform="translate(505.0 56.0)"><rect width="190" height="72" rx="14" fill="#ffffff" stroke="#37E5A2" stroke-opacity=".65"/><text x="18" y="29" fill="#94a0a8" font-family="ui-monospace,Consolas,monospace" font-size="8">09 · VERIFIABLE DECENTRALIZED SYSTEMS</text><text x="18" y="53" fill="#11181d" font-family="Inter,system-ui,sans-serif" font-size="14" font-weight="700">CHAIN LAB</text><circle cx="172" cy="20" r="4" fill="#37E5A2"/></g>
<text x="56" y="580" fill="#687782" font-family="Inter,system-ui,sans-serif" font-size="11">Autonomous AI · Mobility · Realtime interaction · Native DSP · RF sensing · Forensics · Quality automation · Blockchain research</text>
</svg>