<svg xmlns="http://www.w3.org/2000/svg" width="1200" height="430" viewBox="0 0 1200 430" role="img" aria-labelledby="title desc"><title id="title">Vozime mobility system</title><desc id="desc">A deterministic trip lifecycle connecting request, match, arrival, trip, and completion.</desc>
<defs><linearGradient id="route" x1="0" y1="0" x2="1" y2="0"><stop stop-color="#75baff"/><stop offset="1" stop-color="#2ad7b5"/></linearGradient></defs>
<rect width="1200" height="430" rx="18" fill="#05080b"/><rect x="1" y="1" width="1198" height="428" rx="17" fill="none" stroke="#26333e"/>
<text x="56" y="52" fill="#75baff" font-family="ui-monospace,Consolas,monospace" font-size="11" letter-spacing="2">VOZIME / MOBILITY STATE AUTHORITY</text>
<text x="56" y="90" fill="#f5f7f8" font-family="Inter,system-ui,sans-serif" font-size="27" font-weight="720">Trust moves with the trip state.</text>
<g opacity=".25" stroke="#26333e"><path d="M0 150H1200M0 230H1200M0 310H1200"/><path d="M100 110V390M200 110V390M300 110V390M400 110V390M500 110V390M600 110V390M700 110V390M800 110V390M900 110V390M1000 110V390M1100 110V390"/></g>
<path d="M92 330C180 286 214 330 280 292S392 274 482 230 592 214 690 160 822 128 920 118" fill="none" stroke="#26333e" stroke-width="10" stroke-linecap="round"/>
<path d="M92 330C180 286 214 330 280 292S392 274 482 230 592 214 690 160 822 128 920 118" fill="none" stroke="url(#route)" stroke-width="6" stroke-linecap="round"/>
<circle cx="92" cy="330" r="9" fill="#0b1116" stroke="#75baff" stroke-width="3"/><text x="92" y="364" text-anchor="middle" fill="#7f8d99" font-family="ui-monospace,Consolas,monospace" font-size="8">REQUEST</text><circle cx="280" cy="292" r="9" fill="#0b1116" stroke="#75baff" stroke-width="3"/><text x="280" y="326" text-anchor="middle" fill="#7f8d99" font-family="ui-monospace,Consolas,monospace" font-size="8">MATCH</text><circle cx="482" cy="230" r="9" fill="#0b1116" stroke="#75baff" stroke-width="3"/><text x="482" y="264" text-anchor="middle" fill="#7f8d99" font-family="ui-monospace,Consolas,monospace" font-size="8">ARRIVAL</text><circle cx="690" cy="160" r="9" fill="#0b1116" stroke="#75baff" stroke-width="3"/><text x="690" y="194" text-anchor="middle" fill="#7f8d99" font-family="ui-monospace,Consolas,monospace" font-size="8">TRIP</text><circle cx="920" cy="118" r="9" fill="#0b1116" stroke="#75baff" stroke-width="3"/><text x="920" y="152" text-anchor="middle" fill="#7f8d99" font-family="ui-monospace,Consolas,monospace" font-size="8">COMPLETE</text>
<g transform="translate(982 120)"><rect width="160" height="230" rx="26" fill="#0b1116" stroke="#26333e"/><text x="20" y="31" fill="#75baff" font-family="ui-monospace,Consolas,monospace" font-size="8">TRIP IN PROGRESS</text><rect x="18" y="50" width="124" height="104" rx="14" fill="#101920"/><path d="M36 132C60 112 79 126 99 100S118 76 132 80" fill="none" stroke="url(#route)" stroke-width="3"/><circle cx="36" cy="132" r="5" fill="#75baff"/><circle cx="132" cy="80" r="5" fill="#2ad7b5"/><text x="20" y="183" fill="#f5f7f8" font-family="Inter,system-ui,sans-serif" font-size="14" font-weight="700">Moving safely</text><text x="20" y="204" fill="#7f8d99" font-family="Inter,system-ui,sans-serif" font-size="9">ETA · 08 MIN</text></g>
<text x="56" y="400" fill="#7f8d99" font-family="Inter,system-ui,sans-serif" font-size="11">Role-aware state · Maps · Realtime feedback · Notifications · Payment · Safety context</text>
</svg>