<svg xmlns="http://www.w3.org/2000/svg" width="1200" height="360" viewBox="0 0 1200 360" role="img" aria-labelledby="title desc">
  <title id="title">Engineering activity</title>
  <desc id="desc">Awaiting the first GitHub Actions metrics refresh.</desc>
  <rect width="1200" height="360" rx="16" fill="#FFFFFF"/>
  <rect x="1" y="1" width="1198" height="358" rx="15" fill="none" stroke="#C9D3DC"/>
  <text x="56" y="62" fill="#607080" font-family="ui-monospace, SFMono-Regular, Consolas, monospace" font-size="12" letter-spacing="2">ENGINEERING ACTIVITY</text>
  <text x="56" y="104" fill="#141A22" font-family="Inter, ui-sans-serif, system-ui, sans-serif" font-size="28" font-weight="700">Awaiting first verified refresh</text>
  <text x="56" y="135" fill="#607080" font-family="Inter, ui-sans-serif, system-ui, sans-serif" font-size="15">Run the Profile Metrics workflow to generate real public contribution telemetry.</text>
  <rect x="58" y="172" width="13" height="13" rx="3" fill="#087C6B" fill-opacity="0.080"/><rect x="58" y="192" width="13" height="13" rx="3" fill="#087C6B" fill-opacity="0.095"/><rect x="58" y="212" width="13" height="13" rx="3" fill="#087C6B" fill-opacity="0.110"/><rect x="58" y="232" width="13" height="13" rx="3" fill="#087C6B" fill-opacity="0.125"/><rect x="58" y="252" width="13" height="13" rx="3" fill="#087C6B" fill-opacity="0.140"/><rect x="58" y="272" width="13" height="13" rx="3" fill="#087C6B" fill-opacity="0.080"/><rect x="58" y="292" width="13" height="13" rx="3" fill="#087C6B" fill-opacity="0.095"/><rect x="78" y="172" width="13" height="13" rx="3" fill="#087C6B" fill-opacity="0.110"/><rect x="78" y="192" width="13" height="13" rx="3" fill="#087C6B" fill-opacity="0.125"/><rect x="78" y="212" width="13" height="13" rx="3" fill="#087C6B" fill-opacity="0.140"/><rect x="78" y="232" width="13" height="13" rx="3" fill="#087C6B" fill-opacity="0.080"/><rect x="78" y="252" width="13" height="13" rx="3" fill="#087C6B" fill-opacity="0.095"/><rect x="78" y="272" width="13" height="13" rx="3" fill="#087C6B" fill-opacity="0.110"/><rect x="78" y="292" width="13" height="13" rx="3" fill="#087C6B" fill-opacity="0.125"/><rect x="98" y="172" width="13" height="13" rx="3" fill="#087C6B" fill-opacity="0.140"/><rect x="98" y="192" width="13" height="13" rx="3" fill="#087C6B" fill-opacity="0.080"/><rect x="98" y="212" width="13" height="13" rx="3" fill="#087C6B" fill-opacity="0.095"/><rect x="98" y="232" width="13" height="13" rx="3" fill="#087C6B" fill-opacity="0.110"/><rect x="98" y="252" width="13" height="13" rx="3" fill="#087C6B" fill-opacity="0.125"/><rect x="98" y="272" width="13" height="13" rx="3" fill="#087C6B" fill-opacity="0.140"/><rect x="98" y="292" width="13" height="13" rx="3" fill="#087C6B" fill-opacity="0.080"/><rect x="118" y="172" width="13" height="13" rx="3" fill="#087C6B" fill-opacity="0.095"/><rect x="118" y="192" width="13" height="13" rx="3" fill="#087C6B" fill-opacity="0.110"/><rect x="118" y="212" width="13" height="13" rx="3" fill="#087C6B" fill-opacity="0.125"/><rect x="118" y="232" width="13" height="13" rx="3" fill="#087C6B" fill-opacity="0.140"/><rect x="118" y="252" width="13" height="13" rx="3" fill="#087C6B" fill-opacity="0.080"/><rect x="118" y="272" width="13" height="13" rx="3" fill="#087C6B" fill-opacity="0.095"/><rect x="118" y="292" width="13" height="13" rx="3" fill="#087C6B" fill-opacity="0.110"/><rect x="138" y="172" width="13" height="13" rx="3" fill="#087C6B" fill-opacity="0.125"/><rect x="138" y="192" width="13" height="13" rx="3" fill="#087C6B" fill-opacity="0.140"/><rect x="138" y="212" width="13" height="13" rx="3" fill="#087C6B" fill-opacity="0.080"/><rect x="138" y="232" width="13" height="13" rx="3" fill="#087C6B" fill-opacity="0.095"/><rect x="138" y="252" width="13" height="13" rx="3" fill="#087C6B" fill-opacity="0.110"/><rect x="138" y="272" width="13" height="13" rx="3" fill="#087C6B" fill-opacity="0.125"/><rect x="138" y="292" width="13" height="13" rx="3" fill="#087C6B" fill-opacity="0.140"/><rect x="158" y="172" width="13" height="13" rx="3" fill="#087C6B" fill-opacity="0.080"/><rect x="158" y="192" width="13" height="13" rx="3" fill="#087C6B" fill-opacity="0.095"/><rect x="158" y="212" width="13" height="13" rx="3" fill="#087C6B" fill-opacity="0.110"/><rect x="158" y="232" width="13" height="13" rx="3" fill="#087C6B" fill-opacity="0.125"/><rect x="158" y="252" width="13" height="13" rx="3" fill="#087C6B" fill-opacity="0.140"/><rect x="158" y="272" width="13" height="13" rx="3" fill="#087C6B" fill-opacity="0.080"/><rect x="158" y="292" width="13" height="13" rx="3" fill="#087C6B" fill-opacity="0.095"/><rect x="178" y="172" width="13" height="13" rx="3" fill="#087C6B" fill-opacity="0.110"/><rect x="178" y="192" width="13" height="13" rx="3" fill="#087C6B" fill-opacity="0.125"/><rect x="178" y="212" width="13" height="13" rx="3" fill="#087C6B" fill-opacity="0.140"/><rect x="178" y="232" width="13" height="13" rx="3" fill="#087C6B" fill-opacity="0.080"/><rect x="178" y="252" width="13" height="13" rx="3" fill="#087C6B" fill-opacity="0.095"/><rect x="178" y="272" width="13" height="13" rx="3" fill="#087C6B" fill-opacity="0.110"/><rect x="178" y="292" width="13" height="13" rx="3" fill="#087C6B" fill-opacity="0.125"/><rect x="198" y="172" width="13" height="13" rx="3" fill="#087C6B" fill-opacity="0.140"/><rect x="198" y="192" width="13" height="13" rx="3" fill="#087C6B" fill-opacity="0.080"/><rect x="198" y="212" width="13" height="13" rx="3" fill="#087C6B" fill-opacity="0.095"/><rect x="198" y="232" width="13" height="13" rx="3" fill="#087C6B" fill-opacity="0.110"/><rect x="198" y="252" width="13" height="13" rx="3" fill="#087C6B" fill-opacity="0.125"/><rect x="198" y="272" width="13" height="13" rx="3" fill="#087C6B" fill-opacity="0.140"/><rect x="198" y="292" width="13" height="13" rx="3" fill="#087C6B" fill-opacity="0.080"/><rect x="218" y="172" width="13" height="13" rx="3" fill="#087C6B" fill-opacity="0.095"/><rect x="218" y="192" width="13" height="13" rx="3" fill="#087C6B" fill-opacity="0.110"/><rect x="218" y="212" width="13" height="13" rx="3" fill="#087C6B" fill-opacity="0.125"/><rect x="218" y="232" width="13" height="13" rx="3" fill="#087C6B" fill-opacity="0.140"/><rect x="218" y="252" width="13" height="13" rx="3" fill="#087C6B" fill-opacity="0.080"/><rect x="218" y="272" width="13" height="13" rx="3" fill="#087C6B" fill-opacity="0.095"/><rect x="218" y="292" width="13" height="13" rx="3" fill="#087C6B" fill-opacity="0.110"/><rect x="238" y="172" width="13" height="13" rx="3" fill="#087C6B" fill-opacity="0.125"/><rect x="238" y="192" width="13" height="13" rx="3" fill="#087C6B" fill-opacity="0.140"/><rect x="238" y="212" width="13" height="13" rx="3" fill="#087C6B" fill-opacity="0.080"/><rect x="238" y="232" width="13" height="13" rx="3" fill="#087C6B" fill-opacity="0.095"/><rect x="238" y="252" width="13" height="13" rx="3" fill="#087C6B" fill-opacity="0.110"/><rect x="238" y="272" width="13" height="13" rx="3" fill="#087C6B" fill-opacity="0.125"/><rect x="238" y="292" width="13" height="13" rx="3" fill="#087C6B" fill-opacity="0.140"/><rect x="258" y="172" width="13" height="13" rx="3" fill="#087C6B" fill-opacity="0.080"/><rect x="258" y="192" width="13" height="13" rx="3" fill="#087C6B" fill-opacity="0.095"/><rect x="258" y="212" width="13" height="13" rx="3" fill="#087C6B" fill-opacity="0.110"/><rect x="258" y="232" width="13" height="13" rx="3" fill="#087C6B" fill-opacity="0.125"/><rect x="258" y="252" width="13" height="13" rx="3" fill="#087C6B" fill-opacity="0.140"/><rect x="258" y="272" width="13" height="13" rx="3" fill="#087C6B" fill-opacity="0.080"/><rect x="258" y="292" width="13" height="13" rx="3" fill="#087C6B" fill-opacity="0.095"/><rect x="278" y="172" width="13" height="13" rx="3" fill="#087C6B" fill-opacity="0.110"/><rect x="278" y="192" width="13" height="13" rx="3" fill="#087C6B" fill-opacity="0.125"/><rect x="278" y="212" width="13" height="13" rx="3" fill="#087C6B" fill-opacity="0.140"/><rect x="278" y="232" width="13" height="13" rx="3" fill="#087C6B" fill-opacity="0.080"/><rect x="278" y="252" width="13" height="13" rx="3" fill="#087C6B" fill-opacity="0.095"/><rect x="278" y="272" width="13" height="13" rx="3" fill="#087C6B" fill-opacity="0.110"/><rect x="278" y="292" width="13" height="13" rx="3" fill="#087C6B" fill-opacity="0.125"/><rect x="298" y="172" width="13" height="13" rx="3" fill="#087C6B" fill-opacity="0.140"/><rect x="298" y="192" width="13" height="13" rx="3" fill="#087C6B" fill-opacity="0.080"/><rect x="298" y="212" width="13" height="13" rx="3" fill="#087C6B" fill-opacity="0.095"/><rect x="298" y="232" width="13" height="13" rx="3" fill="#087C6B" fill-opacity="0.110"/><rect x="298" y="252" width="13" height="13" rx="3" fill="#087C6B" fill-opacity="0.125"/><rect x="298" y="272" width="13" height="13" rx="3" fill="#087C6B" fill-opacity="0.140"/><rect x="298" y="292" width="13" height="13" rx="3" fill="#087C6B" fill-opacity="0.080"/><rect x="318" y="172" width="13" height="13" rx="3" fill="#087C6B" fill-opacity="0.095"/><rect x="318" y="192" width="13" height="13" rx="3" fill="#087C6B" fill-opacity="0.110"/><rect x="318" y="212" width="13" height="13" rx="3" fill="#087C6B" fill-opacity="0.125"/><rect x="318" y="232" width="13" height="13" rx="3" fill="#087C6B" fill-opacity="0.140"/><rect x="318" y="252" width="13" height="13" rx="3" fill="#087C6B" fill-opacity="0.080"/><rect x="318" y="272" width="13" height="13" rx="3" fill="#087C6B" fill-opacity="0.095"/><rect x="318" y="292" width="13" height="13" rx="3" fill="#087C6B" fill-opacity="0.110"/><rect x="338" y="172" width="13" height="13" rx="3" fill="#087C6B" fill-opacity="0.125"/><rect x="338" y="192" width="13" height="13" rx="3" fill="#087C6B" fill-opacity="0.140"/><rect x="338" y="212" width="13" height="13" rx="3" fill="#087C6B" fill-opacity="0.080"/><rect x="338" y="232" width="13" height="13" rx="3" fill="#087C6B" fill-opacity="0.095"/><rect x="338" y="252" width="13" height="13" rx="3" fill="#087C6B" fill-opacity="0.110"/><rect x="338" y="272" width="13" height="13" rx="3" fill="#087C6B" fill-opacity="0.125"/><rect x="338" y="292" width="13" height="13" rx="3" fill="#087C6B" fill-opacity="0.140"/><rect x="358" y="172" width="13" height="13" rx="3" fill="#087C6B" fill-opacity="0.080"/><rect x="358" y="192" width="13" height="13" rx="3" fill="#087C6B" fill-opacity="0.095"/><rect x="358" y="212" width="13" height="13" rx="3" fill="#087C6B" fill-opacity="0.110"/><rect x="358" y="232" width="13" height="13" rx="3" fill="#087C6B" fill-opacity="0.125"/><rect x="358" y="252" width="13" height="13" rx="3" fill="#087C6B" fill-opacity="0.140"/><rect x="358" y="272" width="13" height="13" rx="3" fill="#087C6B" fill-opacity="0.080"/><rect x="358" y="292" width="13" height="13" rx="3" fill="#087C6B" fill-opacity="0.095"/><rect x="378" y="172" width="13" height="13" rx="3" fill="#087C6B" fill-opacity="0.110"/><rect x="378" y="192" width="13" height="13" rx="3" fill="#087C6B" fill-opacity="0.125"/><rect x="378" y="212" width="13" height="13" rx="3" fill="#087C6B" fill-opacity="0.140"/><rect x="378" y="232" width="13" height="13" rx="3" fill="#087C6B" fill-opacity="0.080"/><rect x="378" y="252" width="13" height="13" rx="3" fill="#087C6B" fill-opacity="0.095"/><rect x="378" y="272" width="13" height="13" rx="3" fill="#087C6B" fill-opacity="0.110"/><rect x="378" y="292" width="13" height="13" rx="3" fill="#087C6B" fill-opacity="0.125"/><rect x="398" y="172" width="13" height="13" rx="3" fill="#087C6B" fill-opacity="0.140"/><rect x="398" y="192" width="13" height="13" rx="3" fill="#087C6B" fill-opacity="0.080"/><rect x="398" y="212" width="13" height="13" rx="3" fill="#087C6B" fill-opacity="0.095"/><rect x="398" y="232" width="13" height="13" rx="3" fill="#087C6B" fill-opacity="0.110"/><rect x="398" y="252" width="13" height="13" rx="3" fill="#087C6B" fill-opacity="0.125"/><rect x="398" y="272" width="13" height="13" rx="3" fill="#087C6B" fill-opacity="0.140"/><rect x="398" y="292" width="13" height="13" rx="3" fill="#087C6B" fill-opacity="0.080"/><rect x="418" y="172" width="13" height="13" rx="3" fill="#087C6B" fill-opacity="0.095"/><rect x="418" y="192" width="13" height="13" rx="3" fill="#087C6B" fill-opacity="0.110"/><rect x="418" y="212" width="13" height="13" rx="3" fill="#087C6B" fill-opacity="0.125"/><rect x="418" y="232" width="13" height="13" rx="3" fill="#087C6B" fill-opacity="0.140"/><rect x="418" y="252" width="13" height="13" rx="3" fill="#087C6B" fill-opacity="0.080"/><rect x="418" y="272" width="13" height="13" rx="3" fill="#087C6B" fill-opacity="0.095"/><rect x="418" y="292" width="13" height="13" rx="3" fill="#087C6B" fill-opacity="0.110"/><rect x="438" y="172" width="13" height="13" rx="3" fill="#087C6B" fill-opacity="0.125"/><rect x="438" y="192" width="13" height="13" rx="3" fill="#087C6B" fill-opacity="0.140"/><rect x="438" y="212" width="13" height="13" rx="3" fill="#087C6B" fill-opacity="0.080"/><rect x="438" y="232" width="13" height="13" rx="3" fill="#087C6B" fill-opacity="0.095"/><rect x="438" y="252" width="13" height="13" rx="3" fill="#087C6B" fill-opacity="0.110"/><rect x="438" y="272" width="13" height="13" rx="3" fill="#087C6B" fill-opacity="0.125"/><rect x="438" y="292" width="13" height="13" rx="3" fill="#087C6B" fill-opacity="0.140"/><rect x="458" y="172" width="13" height="13" rx="3" fill="#087C6B" fill-opacity="0.080"/><rect x="458" y="192" width="13" height="13" rx="3" fill="#087C6B" fill-opacity="0.095"/><rect x="458" y="212" width="13" height="13" rx="3" fill="#087C6B" fill-opacity="0.110"/><rect x="458" y="232" width="13" height="13" rx="3" fill="#087C6B" fill-opacity="0.125"/><rect x="458" y="252" width="13" height="13" rx="3" fill="#087C6B" fill-opacity="0.140"/><rect x="458" y="272" width="13" height="13" rx="3" fill="#087C6B" fill-opacity="0.080"/><rect x="458" y="292" width="13" height="13" rx="3" fill="#087C6B" fill-opacity="0.095"/><rect x="478" y="172" width="13" height="13" rx="3" fill="#087C6B" fill-opacity="0.110"/><rect x="478" y="192" width="13" height="13" rx="3" fill="#087C6B" fill-opacity="0.125"/><rect x="478" y="212" width="13" height="13" rx="3" fill="#087C6B" fill-opacity="0.140"/><rect x="478" y="232" width="13" height="13" rx="3" fill="#087C6B" fill-opacity="0.080"/><rect x="478" y="252" width="13" height="13" rx="3" fill="#087C6B" fill-opacity="0.095"/><rect x="478" y="272" width="13" height="13" rx="3" fill="#087C6B" fill-opacity="0.110"/><rect x="478" y="292" width="13" height="13" rx="3" fill="#087C6B" fill-opacity="0.125"/><rect x="498" y="172" width="13" height="13" rx="3" fill="#087C6B" fill-opacity="0.140"/><rect x="498" y="192" width="13" height="13" rx="3" fill="#087C6B" fill-opacity="0.080"/><rect x="498" y="212" width="13" height="13" rx="3" fill="#087C6B" fill-opacity="0.095"/><rect x="498" y="232" width="13" height="13" rx="3" fill="#087C6B" fill-opacity="0.110"/><rect x="498" y="252" width="13" height="13" rx="3" fill="#087C6B" fill-opacity="0.125"/><rect x="498" y="272" width="13" height="13" rx="3" fill="#087C6B" fill-opacity="0.140"/><rect x="498" y="292" width="13" height="13" rx="3" fill="#087C6B" fill-opacity="0.080"/><rect x="518" y="172" width="13" height="13" rx="3" fill="#087C6B" fill-opacity="0.095"/><rect x="518" y="192" width="13" height="13" rx="3" fill="#087C6B" fill-opacity="0.110"/><rect x="518" y="212" width="13" height="13" rx="3" fill="#087C6B" fill-opacity="0.125"/><rect x="518" y="232" width="13" height="13" rx="3" fill="#087C6B" fill-opacity="0.140"/><rect x="518" y="252" width="13" height="13" rx="3" fill="#087C6B" fill-opacity="0.080"/><rect x="518" y="272" width="13" height="13" rx="3" fill="#087C6B" fill-opacity="0.095"/><rect x="518" y="292" width="13" height="13" rx="3" fill="#087C6B" fill-opacity="0.110"/><rect x="538" y="172" width="13" height="13" rx="3" fill="#087C6B" fill-opacity="0.125"/><rect x="538" y="192" width="13" height="13" rx="3" fill="#087C6B" fill-opacity="0.140"/><rect x="538" y="212" width="13" height="13" rx="3" fill="#087C6B" fill-opacity="0.080"/><rect x="538" y="232" width="13" height="13" rx="3" fill="#087C6B" fill-opacity="0.095"/><rect x="538" y="252" width="13" height="13" rx="3" fill="#087C6B" fill-opacity="0.110"/><rect x="538" y="272" width="13" height="13" rx="3" fill="#087C6B" fill-opacity="0.125"/><rect x="538" y="292" width="13" height="13" rx="3" fill="#087C6B" fill-opacity="0.140"/><rect x="558" y="172" width="13" height="13" rx="3" fill="#087C6B" fill-opacity="0.080"/><rect x="558" y="192" width="13" height="13" rx="3" fill="#087C6B" fill-opacity="0.095"/><rect x="558" y="212" width="13" height="13" rx="3" fill="#087C6B" fill-opacity="0.110"/><rect x="558" y="232" width="13" height="13" rx="3" fill="#087C6B" fill-opacity="0.125"/><rect x="558" y="252" width="13" height="13" rx="3" fill="#087C6B" fill-opacity="0.140"/><rect x="558" y="272" width="13" height="13" rx="3" fill="#087C6B" fill-opacity="0.080"/><rect x="558" y="292" width="13" height="13" rx="3" fill="#087C6B" fill-opacity="0.095"/><rect x="578" y="172" width="13" height="13" rx="3" fill="#087C6B" fill-opacity="0.110"/><rect x="578" y="192" width="13" height="13" rx="3" fill="#087C6B" fill-opacity="0.125"/><rect x="578" y="212" width="13" height="13" rx="3" fill="#087C6B" fill-opacity="0.140"/><rect x="578" y="232" width="13" height="13" rx="3" fill="#087C6B" fill-opacity="0.080"/><rect x="578" y="252" width="13" height="13" rx="3" fill="#087C6B" fill-opacity="0.095"/><rect x="578" y="272" width="13" height="13" rx="3" fill="#087C6B" fill-opacity="0.110"/><rect x="578" y="292" width="13" height="13" rx="3" fill="#087C6B" fill-opacity="0.125"/><rect x="598" y="172" width="13" height="13" rx="3" fill="#087C6B" fill-opacity="0.140"/><rect x="598" y="192" width="13" height="13" rx="3" fill="#087C6B" fill-opacity="0.080"/><rect x="598" y="212" width="13" height="13" rx="3" fill="#087C6B" fill-opacity="0.095"/><rect x="598" y="232" width="13" height="13" rx="3" fill="#087C6B" fill-opacity="0.110"/><rect x="598" y="252" width="13" height="13" rx="3" fill="#087C6B" fill-opacity="0.125"/><rect x="598" y="272" width="13" height="13" rx="3" fill="#087C6B" fill-opacity="0.140"/><rect x="598" y="292" width="13" height="13" rx="3" fill="#087C6B" fill-opacity="0.080"/><rect x="618" y="172" width="13" height="13" rx="3" fill="#087C6B" fill-opacity="0.095"/><rect x="618" y="192" width="13" height="13" rx="3" fill="#087C6B" fill-opacity="0.110"/><rect x="618" y="212" width="13" height="13" rx="3" fill="#087C6B" fill-opacity="0.125"/><rect x="618" y="232" width="13" height="13" rx="3" fill="#087C6B" fill-opacity="0.140"/><rect x="618" y="252" width="13" height="13" rx="3" fill="#087C6B" fill-opacity="0.080"/><rect x="618" y="272" width="13" height="13" rx="3" fill="#087C6B" fill-opacity="0.095"/><rect x="618" y="292" width="13" height="13" rx="3" fill="#087C6B" fill-opacity="0.110"/><rect x="638" y="172" width="13" height="13" rx="3" fill="#087C6B" fill-opacity="0.125"/><rect x="638" y="192" width="13" height="13" rx="3" fill="#087C6B" fill-opacity="0.140"/><rect x="638" y="212" width="13" height="13" rx="3" fill="#087C6B" fill-opacity="0.080"/><rect x="638" y="232" width="13" height="13" rx="3" fill="#087C6B" fill-opacity="0.095"/><rect x="638" y="252" width="13" height="13" rx="3" fill="#087C6B" fill-opacity="0.110"/><rect x="638" y="272" width="13" height="13" rx="3" fill="#087C6B" fill-opacity="0.125"/><rect x="638" y="292" width="13" height="13" rx="3" fill="#087C6B" fill-opacity="0.140"/><rect x="658" y="172" width="13" height="13" rx="3" fill="#087C6B" fill-opacity="0.080"/><rect x="658" y="192" width="13" height="13" rx="3" fill="#087C6B" fill-opacity="0.095"/><rect x="658" y="212" width="13" height="13" rx="3" fill="#087C6B" fill-opacity="0.110"/><rect x="658" y="232" width="13" height="13" rx="3" fill="#087C6B" fill-opacity="0.125"/><rect x="658" y="252" width="13" height="13" rx="3" fill="#087C6B" fill-opacity="0.140"/><rect x="658" y="272" width="13" height="13" rx="3" fill="#087C6B" fill-opacity="0.080"/><rect x="658" y="292" width="13" height="13" rx="3" fill="#087C6B" fill-opacity="0.095"/><rect x="678" y="172" width="13" height="13" rx="3" fill="#087C6B" fill-opacity="0.110"/><rect x="678" y="192" width="13" height="13" rx="3" fill="#087C6B" fill-opacity="0.125"/><rect x="678" y="212" width="13" height="13" rx="3" fill="#087C6B" fill-opacity="0.140"/><rect x="678" y="232" width="13" height="13" rx="3" fill="#087C6B" fill-opacity="0.080"/><rect x="678" y="252" width="13" height="13" rx="3" fill="#087C6B" fill-opacity="0.095"/><rect x="678" y="272" width="13" height="13" rx="3" fill="#087C6B" fill-opacity="0.110"/><rect x="678" y="292" width="13" height="13" rx="3" fill="#087C6B" fill-opacity="0.125"/><rect x="698" y="172" width="13" height="13" rx="3" fill="#087C6B" fill-opacity="0.140"/><rect x="698" y="192" width="13" height="13" rx="3" fill="#087C6B" fill-opacity="0.080"/><rect x="698" y="212" width="13" height="13" rx="3" fill="#087C6B" fill-opacity="0.095"/><rect x="698" y="232" width="13" height="13" rx="3" fill="#087C6B" fill-opacity="0.110"/><rect x="698" y="252" width="13" height="13" rx="3" fill="#087C6B" fill-opacity="0.125"/><rect x="698" y="272" width="13" height="13" rx="3" fill="#087C6B" fill-opacity="0.140"/><rect x="698" y="292" width="13" height="13" rx="3" fill="#087C6B" fill-opacity="0.080"/><rect x="718" y="172" width="13" height="13" rx="3" fill="#087C6B" fill-opacity="0.095"/><rect x="718" y="192" width="13" height="13" rx="3" fill="#087C6B" fill-opacity="0.110"/><rect x="718" y="212" width="13" height="13" rx="3" fill="#087C6B" fill-opacity="0.125"/><rect x="718" y="232" width="13" height="13" rx="3" fill="#087C6B" fill-opacity="0.140"/><rect x="718" y="252" width="13" height="13" rx="3" fill="#087C6B" fill-opacity="0.080"/><rect x="718" y="272" width="13" height="13" rx="3" fill="#087C6B" fill-opacity="0.095"/><rect x="718" y="292" width="13" height="13" rx="3" fill="#087C6B" fill-opacity="0.110"/><rect x="738" y="172" width="13" height="13" rx="3" fill="#087C6B" fill-opacity="0.125"/><rect x="738" y="192" width="13" height="13" rx="3" fill="#087C6B" fill-opacity="0.140"/><rect x="738" y="212" width="13" height="13" rx="3" fill="#087C6B" fill-opacity="0.080"/><rect x="738" y="232" width="13" height="13" rx="3" fill="#087C6B" fill-opacity="0.095"/><rect x="738" y="252" width="13" height="13" rx="3" fill="#087C6B" fill-opacity="0.110"/><rect x="738" y="272" width="13" height="13" rx="3" fill="#087C6B" fill-opacity="0.125"/><rect x="738" y="292" width="13" height="13" rx="3" fill="#087C6B" fill-opacity="0.140"/><rect x="758" y="172" width="13" height="13" rx="3" fill="#087C6B" fill-opacity="0.080"/><rect x="758" y="192" width="13" height="13" rx="3" fill="#087C6B" fill-opacity="0.095"/><rect x="758" y="212" width="13" height="13" rx="3" fill="#087C6B" fill-opacity="0.110"/><rect x="758" y="232" width="13" height="13" rx="3" fill="#087C6B" fill-opacity="0.125"/><rect x="758" y="252" width="13" height="13" rx="3" fill="#087C6B" fill-opacity="0.140"/><rect x="758" y="272" width="13" height="13" rx="3" fill="#087C6B" fill-opacity="0.080"/><rect x="758" y="292" width="13" height="13" rx="3" fill="#087C6B" fill-opacity="0.095"/><rect x="778" y="172" width="13" height="13" rx="3" fill="#087C6B" fill-opacity="0.110"/><rect x="778" y="192" width="13" height="13" rx="3" fill="#087C6B" fill-opacity="0.125"/><rect x="778" y="212" width="13" height="13" rx="3" fill="#087C6B" fill-opacity="0.140"/><rect x="778" y="232" width="13" height="13" rx="3" fill="#087C6B" fill-opacity="0.080"/><rect x="778" y="252" width="13" height="13" rx="3" fill="#087C6B" fill-opacity="0.095"/><rect x="778" y="272" width="13" height="13" rx="3" fill="#087C6B" fill-opacity="0.110"/><rect x="778" y="292" width="13" height="13" rx="3" fill="#087C6B" fill-opacity="0.125"/><rect x="798" y="172" width="13" height="13" rx="3" fill="#087C6B" fill-opacity="0.140"/><rect x="798" y="192" width="13" height="13" rx="3" fill="#087C6B" fill-opacity="0.080"/><rect x="798" y="212" width="13" height="13" rx="3" fill="#087C6B" fill-opacity="0.095"/><rect x="798" y="232" width="13" height="13" rx="3" fill="#087C6B" fill-opacity="0.110"/><rect x="798" y="252" width="13" height="13" rx="3" fill="#087C6B" fill-opacity="0.125"/><rect x="798" y="272" width="13" height="13" rx="3" fill="#087C6B" fill-opacity="0.140"/><rect x="798" y="292" width="13" height="13" rx="3" fill="#087C6B" fill-opacity="0.080"/><rect x="818" y="172" width="13" height="13" rx="3" fill="#087C6B" fill-opacity="0.095"/><rect x="818" y="192" width="13" height="13" rx="3" fill="#087C6B" fill-opacity="0.110"/><rect x="818" y="212" width="13" height="13" rx="3" fill="#087C6B" fill-opacity="0.125"/><rect x="818" y="232" width="13" height="13" rx="3" fill="#087C6B" fill-opacity="0.140"/><rect x="818" y="252" width="13" height="13" rx="3" fill="#087C6B" fill-opacity="0.080"/><rect x="818" y="272" width="13" height="13" rx="3" fill="#087C6B" fill-opacity="0.095"/><rect x="818" y="292" width="13" height="13" rx="3" fill="#087C6B" fill-opacity="0.110"/><rect x="838" y="172" width="13" height="13" rx="3" fill="#087C6B" fill-opacity="0.125"/><rect x="838" y="192" width="13" height="13" rx="3" fill="#087C6B" fill-opacity="0.140"/><rect x="838" y="212" width="13" height="13" rx="3" fill="#087C6B" fill-opacity="0.080"/><rect x="838" y="232" width="13" height="13" rx="3" fill="#087C6B" fill-opacity="0.095"/><rect x="838" y="252" width="13" height="13" rx="3" fill="#087C6B" fill-opacity="0.110"/><rect x="838" y="272" width="13" height="13" rx="3" fill="#087C6B" fill-opacity="0.125"/><rect x="838" y="292" width="13" height="13" rx="3" fill="#087C6B" fill-opacity="0.140"/><rect x="858" y="172" width="13" height="13" rx="3" fill="#087C6B" fill-opacity="0.080"/><rect x="858" y="192" width="13" height="13" rx="3" fill="#087C6B" fill-opacity="0.095"/><rect x="858" y="212" width="13" height="13" rx="3" fill="#087C6B" fill-opacity="0.110"/><rect x="858" y="232" width="13" height="13" rx="3" fill="#087C6B" fill-opacity="0.125"/><rect x="858" y="252" width="13" height="13" rx="3" fill="#087C6B" fill-opacity="0.140"/><rect x="858" y="272" width="13" height="13" rx="3" fill="#087C6B" fill-opacity="0.080"/><rect x="858" y="292" width="13" height="13" rx="3" fill="#087C6B" fill-opacity="0.095"/><rect x="878" y="172" width="13" height="13" rx="3" fill="#087C6B" fill-opacity="0.110"/><rect x="878" y="192" width="13" height="13" rx="3" fill="#087C6B" fill-opacity="0.125"/><rect x="878" y="212" width="13" height="13" rx="3" fill="#087C6B" fill-opacity="0.140"/><rect x="878" y="232" width="13" height="13" rx="3" fill="#087C6B" fill-opacity="0.080"/><rect x="878" y="252" width="13" height="13" rx="3" fill="#087C6B" fill-opacity="0.095"/><rect x="878" y="272" width="13" height="13" rx="3" fill="#087C6B" fill-opacity="0.110"/><rect x="878" y="292" width="13" height="13" rx="3" fill="#087C6B" fill-opacity="0.125"/><rect x="898" y="172" width="13" height="13" rx="3" fill="#087C6B" fill-opacity="0.140"/><rect x="898" y="192" width="13" height="13" rx="3" fill="#087C6B" fill-opacity="0.080"/><rect x="898" y="212" width="13" height="13" rx="3" fill="#087C6B" fill-opacity="0.095"/><rect x="898" y="232" width="13" height="13" rx="3" fill="#087C6B" fill-opacity="0.110"/><rect x="898" y="252" width="13" height="13" rx="3" fill="#087C6B" fill-opacity="0.125"/><rect x="898" y="272" width="13" height="13" rx="3" fill="#087C6B" fill-opacity="0.140"/><rect x="898" y="292" width="13" height="13" rx="3" fill="#087C6B" fill-opacity="0.080"/><rect x="918" y="172" width="13" height="13" rx="3" fill="#087C6B" fill-opacity="0.095"/><rect x="918" y="192" width="13" height="13" rx="3" fill="#087C6B" fill-opacity="0.110"/><rect x="918" y="212" width="13" height="13" rx="3" fill="#087C6B" fill-opacity="0.125"/><rect x="918" y="232" width="13" height="13" rx="3" fill="#087C6B" fill-opacity="0.140"/><rect x="918" y="252" width="13" height="13" rx="3" fill="#087C6B" fill-opacity="0.080"/><rect x="918" y="272" width="13" height="13" rx="3" fill="#087C6B" fill-opacity="0.095"/><rect x="918" y="292" width="13" height="13" rx="3" fill="#087C6B" fill-opacity="0.110"/><rect x="938" y="172" width="13" height="13" rx="3" fill="#087C6B" fill-opacity="0.125"/><rect x="938" y="192" width="13" height="13" rx="3" fill="#087C6B" fill-opacity="0.140"/><rect x="938" y="212" width="13" height="13" rx="3" fill="#087C6B" fill-opacity="0.080"/><rect x="938" y="232" width="13" height="13" rx="3" fill="#087C6B" fill-opacity="0.095"/><rect x="938" y="252" width="13" height="13" rx="3" fill="#087C6B" fill-opacity="0.110"/><rect x="938" y="272" width="13" height="13" rx="3" fill="#087C6B" fill-opacity="0.125"/><rect x="938" y="292" width="13" height="13" rx="3" fill="#087C6B" fill-opacity="0.140"/><rect x="958" y="172" width="13" height="13" rx="3" fill="#087C6B" fill-opacity="0.080"/><rect x="958" y="192" width="13" height="13" rx="3" fill="#087C6B" fill-opacity="0.095"/><rect x="958" y="212" width="13" height="13" rx="3" fill="#087C6B" fill-opacity="0.110"/><rect x="958" y="232" width="13" height="13" rx="3" fill="#087C6B" fill-opacity="0.125"/><rect x="958" y="252" width="13" height="13" rx="3" fill="#087C6B" fill-opacity="0.140"/><rect x="958" y="272" width="13" height="13" rx="3" fill="#087C6B" fill-opacity="0.080"/><rect x="958" y="292" width="13" height="13" rx="3" fill="#087C6B" fill-opacity="0.095"/><rect x="978" y="172" width="13" height="13" rx="3" fill="#087C6B" fill-opacity="0.110"/><rect x="978" y="192" width="13" height="13" rx="3" fill="#087C6B" fill-opacity="0.125"/><rect x="978" y="212" width="13" height="13" rx="3" fill="#087C6B" fill-opacity="0.140"/><rect x="978" y="232" width="13" height="13" rx="3" fill="#087C6B" fill-opacity="0.080"/><rect x="978" y="252" width="13" height="13" rx="3" fill="#087C6B" fill-opacity="0.095"/><rect x="978" y="272" width="13" height="13" rx="3" fill="#087C6B" fill-opacity="0.110"/><rect x="978" y="292" width="13" height="13" rx="3" fill="#087C6B" fill-opacity="0.125"/><rect x="998" y="172" width="13" height="13" rx="3" fill="#087C6B" fill-opacity="0.140"/><rect x="998" y="192" width="13" height="13" rx="3" fill="#087C6B" fill-opacity="0.080"/><rect x="998" y="212" width="13" height="13" rx="3" fill="#087C6B" fill-opacity="0.095"/><rect x="998" y="232" width="13" height="13" rx="3" fill="#087C6B" fill-opacity="0.110"/><rect x="998" y="252" width="13" height="13" rx="3" fill="#087C6B" fill-opacity="0.125"/><rect x="998" y="272" width="13" height="13" rx="3" fill="#087C6B" fill-opacity="0.140"/><rect x="998" y="292" width="13" height="13" rx="3" fill="#087C6B" fill-opacity="0.080"/><rect x="1018" y="172" width="13" height="13" rx="3" fill="#087C6B" fill-opacity="0.095"/><rect x="1018" y="192" width="13" height="13" rx="3" fill="#087C6B" fill-opacity="0.110"/><rect x="1018" y="212" width="13" height="13" rx="3" fill="#087C6B" fill-opacity="0.125"/><rect x="1018" y="232" width="13" height="13" rx="3" fill="#087C6B" fill-opacity="0.140"/><rect x="1018" y="252" width="13" height="13" rx="3" fill="#087C6B" fill-opacity="0.080"/><rect x="1018" y="272" width="13" height="13" rx="3" fill="#087C6B" fill-opacity="0.095"/><rect x="1018" y="292" width="13" height="13" rx="3" fill="#087C6B" fill-opacity="0.110"/><rect x="1038" y="172" width="13" height="13" rx="3" fill="#087C6B" fill-opacity="0.125"/><rect x="1038" y="192" width="13" height="13" rx="3" fill="#087C6B" fill-opacity="0.140"/><rect x="1038" y="212" width="13" height="13" rx="3" fill="#087C6B" fill-opacity="0.080"/><rect x="1038" y="232" width="13" height="13" rx="3" fill="#087C6B" fill-opacity="0.095"/><rect x="1038" y="252" width="13" height="13" rx="3" fill="#087C6B" fill-opacity="0.110"/><rect x="1038" y="272" width="13" height="13" rx="3" fill="#087C6B" fill-opacity="0.125"/><rect x="1038" y="292" width="13" height="13" rx="3" fill="#087C6B" fill-opacity="0.140"/><rect x="1058" y="172" width="13" height="13" rx="3" fill="#087C6B" fill-opacity="0.080"/><rect x="1058" y="192" width="13" height="13" rx="3" fill="#087C6B" fill-opacity="0.095"/><rect x="1058" y="212" width="13" height="13" rx="3" fill="#087C6B" fill-opacity="0.110"/><rect x="1058" y="232" width="13" height="13" rx="3" fill="#087C6B" fill-opacity="0.125"/><rect x="1058" y="252" width="13" height="13" rx="3" fill="#087C6B" fill-opacity="0.140"/><rect x="1058" y="272" width="13" height="13" rx="3" fill="#087C6B" fill-opacity="0.080"/><rect x="1058" y="292" width="13" height="13" rx="3" fill="#087C6B" fill-opacity="0.095"/><rect x="1078" y="172" width="13" height="13" rx="3" fill="#087C6B" fill-opacity="0.110"/><rect x="1078" y="192" width="13" height="13" rx="3" fill="#087C6B" fill-opacity="0.125"/><rect x="1078" y="212" width="13" height="13" rx="3" fill="#087C6B" fill-opacity="0.140"/><rect x="1078" y="232" width="13" height="13" rx="3" fill="#087C6B" fill-opacity="0.080"/><rect x="1078" y="252" width="13" height="13" rx="3" fill="#087C6B" fill-opacity="0.095"/><rect x="1078" y="272" width="13" height="13" rx="3" fill="#087C6B" fill-opacity="0.110"/><rect x="1078" y="292" width="13" height="13" rx="3" fill="#087C6B" fill-opacity="0.125"/><rect x="1098" y="172" width="13" height="13" rx="3" fill="#087C6B" fill-opacity="0.140"/><rect x="1098" y="192" width="13" height="13" rx="3" fill="#087C6B" fill-opacity="0.080"/><rect x="1098" y="212" width="13" height="13" rx="3" fill="#087C6B" fill-opacity="0.095"/><rect x="1098" y="232" width="13" height="13" rx="3" fill="#087C6B" fill-opacity="0.110"/><rect x="1098" y="252" width="13" height="13" rx="3" fill="#087C6B" fill-opacity="0.125"/><rect x="1098" y="272" width="13" height="13" rx="3" fill="#087C6B" fill-opacity="0.140"/><rect x="1098" y="292" width="13" height="13" rx="3" fill="#087C6B" fill-opacity="0.080"/>
  <circle cx="58" cy="330" r="5" fill="#087C6B"/>
  <text x="74" y="335" fill="#607080" font-family="Inter, ui-sans-serif, system-ui, sans-serif" font-size="12">Generated locally in this repository · no third-party stats renderer</text>
</svg>
