<svg xmlns="http://www.w3.org/2000/svg" width="1200" height="380" viewBox="0 0 1200 380" role="img" aria-labelledby="title desc">
  <title id="title">GitHub engineering activity for gonzo-max2</title>
  <desc id="desc">3 public contributions in the last year.</desc>
  <rect width="1200" height="380" rx="16" fill="#0B1015"/>
  <rect x="1" y="1" width="1198" height="378" rx="15" fill="none" stroke="#26333E"/>
  <text x="56" y="55" fill="#96A4B2" font-family="ui-monospace, SFMono-Regular, Consolas, monospace" font-size="11" letter-spacing="2">ENGINEERING ACTIVITY · LAST 12 MONTHS</text>
  <text x="56" y="88" fill="#F4F7FA" font-family="Inter, ui-sans-serif, system-ui, sans-serif" font-size="18" font-weight="650">1 commits · 0 pull requests · 0 reviews · 0 issues</text>
  <g transform="translate(56 112)"><text x="0" y="0" fill="#96A4B2" font-family="ui-monospace, SFMono-Regular, Consolas, monospace" font-size="10" letter-spacing="1.4">TOTAL</text><text x="0" y="30" fill="#F4F7FA" font-family="Inter, ui-sans-serif, system-ui, sans-serif" font-size="24" font-weight="700">3</text></g><g transform="translate(326 112)"><text x="0" y="0" fill="#96A4B2" font-family="ui-monospace, SFMono-Regular, Consolas, monospace" font-size="10" letter-spacing="1.4">ACTIVE DAYS</text><text x="0" y="30" fill="#F4F7FA" font-family="Inter, ui-sans-serif, system-ui, sans-serif" font-size="24" font-weight="700">1</text></g><g transform="translate(596 112)"><text x="0" y="0" fill="#96A4B2" font-family="ui-monospace, SFMono-Regular, Consolas, monospace" font-size="10" letter-spacing="1.4">CURRENT STREAK</text><text x="0" y="30" fill="#F4F7FA" font-family="Inter, ui-sans-serif, system-ui, sans-serif" font-size="24" font-weight="700">0</text></g><g transform="translate(866 112)"><text x="0" y="0" fill="#96A4B2" font-family="ui-monospace, SFMono-Regular, Consolas, monospace" font-size="10" letter-spacing="1.4">LONGEST STREAK</text><text x="0" y="30" fill="#F4F7FA" font-family="Inter, ui-sans-serif, system-ui, sans-serif" font-size="24" font-weight="700">1</text></g>
  <rect x="56" y="192" width="13" height="13" rx="3" fill="#172028"><title>2025-07-13 · 0 contributions</title></rect><rect x="56" y="212" width="13" height="13" rx="3" fill="#172028"><title>2025-07-14 · 0 contributions</title></rect><rect x="56" y="232" width="13" height="13" rx="3" fill="#172028"><title>2025-07-15 · 0 contributions</title></rect><rect x="56" y="252" width="13" height="13" rx="3" fill="#172028"><title>2025-07-16 · 0 contributions</title></rect><rect x="56" y="272" width="13" height="13" rx="3" fill="#172028"><title>2025-07-17 · 0 contributions</title></rect><rect x="56" y="292" width="13" height="13" rx="3" fill="#172028"><title>2025-07-18 · 0 contributions</title></rect><rect x="56" y="312" width="13" height="13" rx="3" fill="#172028"><title>2025-07-19 · 0 contributions</title></rect><rect x="76" y="192" width="13" height="13" rx="3" fill="#172028"><title>2025-07-20 · 0 contributions</title></rect><rect x="76" y="212" width="13" height="13" rx="3" fill="#172028"><title>2025-07-21 · 0 contributions</title></rect><rect x="76" y="232" width="13" height="13" rx="3" fill="#172028"><title>2025-07-22 · 0 contributions</title></rect><rect x="76" y="252" width="13" height="13" rx="3" fill="#172028"><title>2025-07-23 · 0 contributions</title></rect><rect x="76" y="272" width="13" height="13" rx="3" fill="#172028"><title>2025-07-24 · 0 contributions</title></rect><rect x="76" y="292" width="13" height="13" rx="3" fill="#172028"><title>2025-07-25 · 0 contributions</title></rect><rect x="76" y="312" width="13" height="13" rx="3" fill="#172028"><title>2025-07-26 · 0 contributions</title></rect><rect x="96" y="192" width="13" height="13" rx="3" fill="#172028"><title>2025-07-27 · 0 contributions</title></rect><rect x="96" y="212" width="13" height="13" rx="3" fill="#172028"><title>2025-07-28 · 0 contributions</title></rect><rect x="96" y="232" width="13" height="13" rx="3" fill="#172028"><title>2025-07-29 · 0 contributions</title></rect><rect x="96" y="252" width="13" height="13" rx="3" fill="#172028"><title>2025-07-30 · 0 contributions</title></rect><rect x="96" y="272" width="13" height="13" rx="3" fill="#172028"><title>2025-07-31 · 0 contributions</title></rect><rect x="96" y="292" width="13" height="13" rx="3" fill="#172028"><title>2025-08-01 · 0 contributions</title></rect><rect x="96" y="312" width="13" height="13" rx="3" fill="#172028"><title>2025-08-02 · 0 contributions</title></rect><rect x="116" y="192" width="13" height="13" rx="3" fill="#172028"><title>2025-08-03 · 0 contributions</title></rect><rect x="116" y="212" width="13" height="13" rx="3" fill="#172028"><title>2025-08-04 · 0 contributions</title></rect><rect x="116" y="232" width="13" height="13" rx="3" fill="#172028"><title>2025-08-05 · 0 contributions</title></rect><rect x="116" y="252" width="13" height="13" rx="3" fill="#172028"><title>2025-08-06 · 0 contributions</title></rect><rect x="116" y="272" width="13" height="13" rx="3" fill="#172028"><title>2025-08-07 · 0 contributions</title></rect><rect x="116" y="292" width="13" height="13" rx="3" fill="#172028"><title>2025-08-08 · 0 contributions</title></rect><rect x="116" y="312" width="13" height="13" rx="3" fill="#172028"><title>2025-08-09 · 0 contributions</title></rect><rect x="136" y="192" width="13" height="13" rx="3" fill="#172028"><title>2025-08-10 · 0 contributions</title></rect><rect x="136" y="212" width="13" height="13" rx="3" fill="#172028"><title>2025-08-11 · 0 contributions</title></rect><rect x="136" y="232" width="13" height="13" rx="3" fill="#172028"><title>2025-08-12 · 0 contributions</title></rect><rect x="136" y="252" width="13" height="13" rx="3" fill="#172028"><title>2025-08-13 · 0 contributions</title></rect><rect x="136" y="272" width="13" height="13" rx="3" fill="#172028"><title>2025-08-14 · 0 contributions</title></rect><rect x="136" y="292" width="13" height="13" rx="3" fill="#172028"><title>2025-08-15 · 0 contributions</title></rect><rect x="136" y="312" width="13" height="13" rx="3" fill="#172028"><title>2025-08-16 · 0 contributions</title></rect><rect x="156" y="192" width="13" height="13" rx="3" fill="#172028"><title>2025-08-17 · 0 contributions</title></rect><rect x="156" y="212" width="13" height="13" rx="3" fill="#172028"><title>2025-08-18 · 0 contributions</title></rect><rect x="156" y="232" width="13" height="13" rx="3" fill="#172028"><title>2025-08-19 · 0 contributions</title></rect><rect x="156" y="252" width="13" height="13" rx="3" fill="#172028"><title>2025-08-20 · 0 contributions</title></rect><rect x="156" y="272" width="13" height="13" rx="3" fill="#172028"><title>2025-08-21 · 0 contributions</title></rect><rect x="156" y="292" width="13" height="13" rx="3" fill="#172028"><title>2025-08-22 · 0 contributions</title></rect><rect x="156" y="312" width="13" height="13" rx="3" fill="#172028"><title>2025-08-23 · 0 contributions</title></rect><rect x="176" y="192" width="13" height="13" rx="3" fill="#172028"><title>2025-08-24 · 0 contributions</title></rect><rect x="176" y="212" width="13" height="13" rx="3" fill="#172028"><title>2025-08-25 · 0 contributions</title></rect><rect x="176" y="232" width="13" height="13" rx="3" fill="#172028"><title>2025-08-26 · 0 contributions</title></rect><rect x="176" y="252" width="13" height="13" rx="3" fill="#172028"><title>2025-08-27 · 0 contributions</title></rect><rect x="176" y="272" width="13" height="13" rx="3" fill="#172028"><title>2025-08-28 · 0 contributions</title></rect><rect x="176" y="292" width="13" height="13" rx="3" fill="#172028"><title>2025-08-29 · 0 contributions</title></rect><rect x="176" y="312" width="13" height="13" rx="3" fill="#172028"><title>2025-08-30 · 0 contributions</title></rect><rect x="196" y="192" width="13" height="13" rx="3" fill="#172028"><title>2025-08-31 · 0 contributions</title></rect><rect x="196" y="212" width="13" height="13" rx="3" fill="#172028"><title>2025-09-01 · 0 contributions</title></rect><rect x="196" y="232" width="13" height="13" rx="3" fill="#172028"><title>2025-09-02 · 0 contributions</title></rect><rect x="196" y="252" width="13" height="13" rx="3" fill="#172028"><title>2025-09-03 · 0 contributions</title></rect><rect x="196" y="272" width="13" height="13" rx="3" fill="#172028"><title>2025-09-04 · 0 contributions</title></rect><rect x="196" y="292" width="13" height="13" rx="3" fill="#172028"><title>2025-09-05 · 0 contributions</title></rect><rect x="196" y="312" width="13" height="13" rx="3" fill="#172028"><title>2025-09-06 · 0 contributions</title></rect><rect x="216" y="192" width="13" height="13" rx="3" fill="#172028"><title>2025-09-07 · 0 contributions</title></rect><rect x="216" y="212" width="13" height="13" rx="3" fill="#172028"><title>2025-09-08 · 0 contributions</title></rect><rect x="216" y="232" width="13" height="13" rx="3" fill="#172028"><title>2025-09-09 · 0 contributions</title></rect><rect x="216" y="252" width="13" height="13" rx="3" fill="#172028"><title>2025-09-10 · 0 contributions</title></rect><rect x="216" y="272" width="13" height="13" rx="3" fill="#172028"><title>2025-09-11 · 0 contributions</title></rect><rect x="216" y="292" width="13" height="13" rx="3" fill="#172028"><title>2025-09-12 · 0 contributions</title></rect><rect x="216" y="312" width="13" height="13" rx="3" fill="#172028"><title>2025-09-13 · 0 contributions</title></rect><rect x="236" y="192" width="13" height="13" rx="3" fill="#172028"><title>2025-09-14 · 0 contributions</title></rect><rect x="236" y="212" width="13" height="13" rx="3" fill="#172028"><title>2025-09-15 · 0 contributions</title></rect><rect x="236" y="232" width="13" height="13" rx="3" fill="#172028"><title>2025-09-16 · 0 contributions</title></rect><rect x="236" y="252" width="13" height="13" rx="3" fill="#172028"><title>2025-09-17 · 0 contributions</title></rect><rect x="236" y="272" width="13" height="13" rx="3" fill="#172028"><title>2025-09-18 · 0 contributions</title></rect><rect x="236" y="292" width="13" height="13" rx="3" fill="#172028"><title>2025-09-19 · 0 contributions</title></rect><rect x="236" y="312" width="13" height="13" rx="3" fill="#172028"><title>2025-09-20 · 0 contributions</title></rect><rect x="256" y="192" width="13" height="13" rx="3" fill="#172028"><title>2025-09-21 · 0 contributions</title></rect><rect x="256" y="212" width="13" height="13" rx="3" fill="#172028"><title>2025-09-22 · 0 contributions</title></rect><rect x="256" y="232" width="13" height="13" rx="3" fill="#172028"><title>2025-09-23 · 0 contributions</title></rect><rect x="256" y="252" width="13" height="13" rx="3" fill="#172028"><title>2025-09-24 · 0 contributions</title></rect><rect x="256" y="272" width="13" height="13" rx="3" fill="#172028"><title>2025-09-25 · 0 contributions</title></rect><rect x="256" y="292" width="13" height="13" rx="3" fill="#172028"><title>2025-09-26 · 0 contributions</title></rect><rect x="256" y="312" width="13" height="13" rx="3" fill="#172028"><title>2025-09-27 · 0 contributions</title></rect><rect x="276" y="192" width="13" height="13" rx="3" fill="#172028"><title>2025-09-28 · 0 contributions</title></rect><rect x="276" y="212" width="13" height="13" rx="3" fill="#172028"><title>2025-09-29 · 0 contributions</title></rect><rect x="276" y="232" width="13" height="13" rx="3" fill="#172028"><title>2025-09-30 · 0 contributions</title></rect><rect x="276" y="252" width="13" height="13" rx="3" fill="#172028"><title>2025-10-01 · 0 contributions</title></rect><rect x="276" y="272" width="13" height="13" rx="3" fill="#172028"><title>2025-10-02 · 0 contributions</title></rect><rect x="276" y="292" width="13" height="13" rx="3" fill="#172028"><title>2025-10-03 · 0 contributions</title></rect><rect x="276" y="312" width="13" height="13" rx="3" fill="#172028"><title>2025-10-04 · 0 contributions</title></rect><rect x="296" y="192" width="13" height="13" rx="3" fill="#172028"><title>2025-10-05 · 0 contributions</title></rect><rect x="296" y="212" width="13" height="13" rx="3" fill="#172028"><title>2025-10-06 · 0 contributions</title></rect><rect x="296" y="232" width="13" height="13" rx="3" fill="#172028"><title>2025-10-07 · 0 contributions</title></rect><rect x="296" y="252" width="13" height="13" rx="3" fill="#172028"><title>2025-10-08 · 0 contributions</title></rect><rect x="296" y="272" width="13" height="13" rx="3" fill="#172028"><title>2025-10-09 · 0 contributions</title></rect><rect x="296" y="292" width="13" height="13" rx="3" fill="#172028"><title>2025-10-10 · 0 contributions</title></rect><rect x="296" y="312" width="13" height="13" rx="3" fill="#172028"><title>2025-10-11 · 0 contributions</title></rect><rect x="316" y="192" width="13" height="13" rx="3" fill="#172028"><title>2025-10-12 · 0 contributions</title></rect><rect x="316" y="212" width="13" height="13" rx="3" fill="#172028"><title>2025-10-13 · 0 contributions</title></rect><rect x="316" y="232" width="13" height="13" rx="3" fill="#172028"><title>2025-10-14 · 0 contributions</title></rect><rect x="316" y="252" width="13" height="13" rx="3" fill="#172028"><title>2025-10-15 · 0 contributions</title></rect><rect x="316" y="272" width="13" height="13" rx="3" fill="#172028"><title>2025-10-16 · 0 contributions</title></rect><rect x="316" y="292" width="13" height="13" rx="3" fill="#172028"><title>2025-10-17 · 0 contributions</title></rect><rect x="316" y="312" width="13" height="13" rx="3" fill="#172028"><title>2025-10-18 · 0 contributions</title></rect><rect x="336" y="192" width="13" height="13" rx="3" fill="#172028"><title>2025-10-19 · 0 contributions</title></rect><rect x="336" y="212" width="13" height="13" rx="3" fill="#172028"><title>2025-10-20 · 0 contributions</title></rect><rect x="336" y="232" width="13" height="13" rx="3" fill="#172028"><title>2025-10-21 · 0 contributions</title></rect><rect x="336" y="252" width="13" height="13" rx="3" fill="#172028"><title>2025-10-22 · 0 contributions</title></rect><rect x="336" y="272" width="13" height="13" rx="3" fill="#172028"><title>2025-10-23 · 0 contributions</title></rect><rect x="336" y="292" width="13" height="13" rx="3" fill="#172028"><title>2025-10-24 · 0 contributions</title></rect><rect x="336" y="312" width="13" height="13" rx="3" fill="#172028"><title>2025-10-25 · 0 contributions</title></rect><rect x="356" y="192" width="13" height="13" rx="3" fill="#172028"><title>2025-10-26 · 0 contributions</title></rect><rect x="356" y="212" width="13" height="13" rx="3" fill="#172028"><title>2025-10-27 · 0 contributions</title></rect><rect x="356" y="232" width="13" height="13" rx="3" fill="#172028"><title>2025-10-28 · 0 contributions</title></rect><rect x="356" y="252" width="13" height="13" rx="3" fill="#172028"><title>2025-10-29 · 0 contributions</title></rect><rect x="356" y="272" width="13" height="13" rx="3" fill="#172028"><title>2025-10-30 · 0 contributions</title></rect><rect x="356" y="292" width="13" height="13" rx="3" fill="#172028"><title>2025-10-31 · 0 contributions</title></rect><rect x="356" y="312" width="13" height="13" rx="3" fill="#172028"><title>2025-11-01 · 0 contributions</title></rect><rect x="376" y="192" width="13" height="13" rx="3" fill="#172028"><title>2025-11-02 · 0 contributions</title></rect><rect x="376" y="212" width="13" height="13" rx="3" fill="#172028"><title>2025-11-03 · 0 contributions</title></rect><rect x="376" y="232" width="13" height="13" rx="3" fill="#172028"><title>2025-11-04 · 0 contributions</title></rect><rect x="376" y="252" width="13" height="13" rx="3" fill="#172028"><title>2025-11-05 · 0 contributions</title></rect><rect x="376" y="272" width="13" height="13" rx="3" fill="#172028"><title>2025-11-06 · 0 contributions</title></rect><rect x="376" y="292" width="13" height="13" rx="3" fill="#172028"><title>2025-11-07 · 0 contributions</title></rect><rect x="376" y="312" width="13" height="13" rx="3" fill="#172028"><title>2025-11-08 · 0 contributions</title></rect><rect x="396" y="192" width="13" height="13" rx="3" fill="#172028"><title>2025-11-09 · 0 contributions</title></rect><rect x="396" y="212" width="13" height="13" rx="3" fill="#172028"><title>2025-11-10 · 0 contributions</title></rect><rect x="396" y="232" width="13" height="13" rx="3" fill="#172028"><title>2025-11-11 · 0 contributions</title></rect><rect x="396" y="252" width="13" height="13" rx="3" fill="#172028"><title>2025-11-12 · 0 contributions</title></rect><rect x="396" y="272" width="13" height="13" rx="3" fill="#172028"><title>2025-11-13 · 0 contributions</title></rect><rect x="396" y="292" width="13" height="13" rx="3" fill="#172028"><title>2025-11-14 · 0 contributions</title></rect><rect x="396" y="312" width="13" height="13" rx="3" fill="#172028"><title>2025-11-15 · 0 contributions</title></rect><rect x="416" y="192" width="13" height="13" rx="3" fill="#172028"><title>2025-11-16 · 0 contributions</title></rect><rect x="416" y="212" width="13" height="13" rx="3" fill="#172028"><title>2025-11-17 · 0 contributions</title></rect><rect x="416" y="232" width="13" height="13" rx="3" fill="#172028"><title>2025-11-18 · 0 contributions</title></rect><rect x="416" y="252" width="13" height="13" rx="3" fill="#172028"><title>2025-11-19 · 0 contributions</title></rect><rect x="416" y="272" width="13" height="13" rx="3" fill="#172028"><title>2025-11-20 · 0 contributions</title></rect><rect x="416" y="292" width="13" height="13" rx="3" fill="#172028"><title>2025-11-21 · 0 contributions</title></rect><rect x="416" y="312" width="13" height="13" rx="3" fill="#172028"><title>2025-11-22 · 0 contributions</title></rect><rect x="436" y="192" width="13" height="13" rx="3" fill="#172028"><title>2025-11-23 · 0 contributions</title></rect><rect x="436" y="212" width="13" height="13" rx="3" fill="#172028"><title>2025-11-24 · 0 contributions</title></rect><rect x="436" y="232" width="13" height="13" rx="3" fill="#172028"><title>2025-11-25 · 0 contributions</title></rect><rect x="436" y="252" width="13" height="13" rx="3" fill="#172028"><title>2025-11-26 · 0 contributions</title></rect><rect x="436" y="272" width="13" height="13" rx="3" fill="#172028"><title>2025-11-27 · 0 contributions</title></rect><rect x="436" y="292" width="13" height="13" rx="3" fill="#172028"><title>2025-11-28 · 0 contributions</title></rect><rect x="436" y="312" width="13" height="13" rx="3" fill="#172028"><title>2025-11-29 · 0 contributions</title></rect><rect x="456" y="192" width="13" height="13" rx="3" fill="#172028"><title>2025-11-30 · 0 contributions</title></rect><rect x="456" y="212" width="13" height="13" rx="3" fill="#172028"><title>2025-12-01 · 0 contributions</title></rect><rect x="456" y="232" width="13" height="13" rx="3" fill="#172028"><title>2025-12-02 · 0 contributions</title></rect><rect x="456" y="252" width="13" height="13" rx="3" fill="#172028"><title>2025-12-03 · 0 contributions</title></rect><rect x="456" y="272" width="13" height="13" rx="3" fill="#172028"><title>2025-12-04 · 0 contributions</title></rect><rect x="456" y="292" width="13" height="13" rx="3" fill="#172028"><title>2025-12-05 · 0 contributions</title></rect><rect x="456" y="312" width="13" height="13" rx="3" fill="#172028"><title>2025-12-06 · 0 contributions</title></rect><rect x="476" y="192" width="13" height="13" rx="3" fill="#172028"><title>2025-12-07 · 0 contributions</title></rect><rect x="476" y="212" width="13" height="13" rx="3" fill="#172028"><title>2025-12-08 · 0 contributions</title></rect><rect x="476" y="232" width="13" height="13" rx="3" fill="#172028"><title>2025-12-09 · 0 contributions</title></rect><rect x="476" y="252" width="13" height="13" rx="3" fill="#172028"><title>2025-12-10 · 0 contributions</title></rect><rect x="476" y="272" width="13" height="13" rx="3" fill="#172028"><title>2025-12-11 · 0 contributions</title></rect><rect x="476" y="292" width="13" height="13" rx="3" fill="#172028"><title>2025-12-12 · 0 contributions</title></rect><rect x="476" y="312" width="13" height="13" rx="3" fill="#172028"><title>2025-12-13 · 0 contributions</title></rect><rect x="496" y="192" width="13" height="13" rx="3" fill="#172028"><title>2025-12-14 · 0 contributions</title></rect><rect x="496" y="212" width="13" height="13" rx="3" fill="#172028"><title>2025-12-15 · 0 contributions</title></rect><rect x="496" y="232" width="13" height="13" rx="3" fill="#172028"><title>2025-12-16 · 0 contributions</title></rect><rect x="496" y="252" width="13" height="13" rx="3" fill="#172028"><title>2025-12-17 · 0 contributions</title></rect><rect x="496" y="272" width="13" height="13" rx="3" fill="#172028"><title>2025-12-18 · 0 contributions</title></rect><rect x="496" y="292" width="13" height="13" rx="3" fill="#172028"><title>2025-12-19 · 0 contributions</title></rect><rect x="496" y="312" width="13" height="13" rx="3" fill="#172028"><title>2025-12-20 · 0 contributions</title></rect><rect x="516" y="192" width="13" height="13" rx="3" fill="#172028"><title>2025-12-21 · 0 contributions</title></rect><rect x="516" y="212" width="13" height="13" rx="3" fill="#172028"><title>2025-12-22 · 0 contributions</title></rect><rect x="516" y="232" width="13" height="13" rx="3" fill="#172028"><title>2025-12-23 · 0 contributions</title></rect><rect x="516" y="252" width="13" height="13" rx="3" fill="#172028"><title>2025-12-24 · 0 contributions</title></rect><rect x="516" y="272" width="13" height="13" rx="3" fill="#172028"><title>2025-12-25 · 0 contributions</title></rect><rect x="516" y="292" width="13" height="13" rx="3" fill="#172028"><title>2025-12-26 · 0 contributions</title></rect><rect x="516" y="312" width="13" height="13" rx="3" fill="#172028"><title>2025-12-27 · 0 contributions</title></rect><rect x="536" y="192" width="13" height="13" rx="3" fill="#172028"><title>2025-12-28 · 0 contributions</title></rect><rect x="536" y="212" width="13" height="13" rx="3" fill="#172028"><title>2025-12-29 · 0 contributions</title></rect><rect x="536" y="232" width="13" height="13" rx="3" fill="#172028"><title>2025-12-30 · 0 contributions</title></rect><rect x="536" y="252" width="13" height="13" rx="3" fill="#172028"><title>2025-12-31 · 0 contributions</title></rect><rect x="536" y="272" width="13" height="13" rx="3" fill="#172028"><title>2026-01-01 · 0 contributions</title></rect><rect x="536" y="292" width="13" height="13" rx="3" fill="#172028"><title>2026-01-02 · 0 contributions</title></rect><rect x="536" y="312" width="13" height="13" rx="3" fill="#172028"><title>2026-01-03 · 0 contributions</title></rect><rect x="556" y="192" width="13" height="13" rx="3" fill="#172028"><title>2026-01-04 · 0 contributions</title></rect><rect x="556" y="212" width="13" height="13" rx="3" fill="#172028"><title>2026-01-05 · 0 contributions</title></rect><rect x="556" y="232" width="13" height="13" rx="3" fill="#172028"><title>2026-01-06 · 0 contributions</title></rect><rect x="556" y="252" width="13" height="13" rx="3" fill="#172028"><title>2026-01-07 · 0 contributions</title></rect><rect x="556" y="272" width="13" height="13" rx="3" fill="#172028"><title>2026-01-08 · 0 contributions</title></rect><rect x="556" y="292" width="13" height="13" rx="3" fill="#172028"><title>2026-01-09 · 0 contributions</title></rect><rect x="556" y="312" width="13" height="13" rx="3" fill="#172028"><title>2026-01-10 · 0 contributions</title></rect><rect x="576" y="192" width="13" height="13" rx="3" fill="#172028"><title>2026-01-11 · 0 contributions</title></rect><rect x="576" y="212" width="13" height="13" rx="3" fill="#172028"><title>2026-01-12 · 0 contributions</title></rect><rect x="576" y="232" width="13" height="13" rx="3" fill="#172028"><title>2026-01-13 · 0 contributions</title></rect><rect x="576" y="252" width="13" height="13" rx="3" fill="#172028"><title>2026-01-14 · 0 contributions</title></rect><rect x="576" y="272" width="13" height="13" rx="3" fill="#172028"><title>2026-01-15 · 0 contributions</title></rect><rect x="576" y="292" width="13" height="13" rx="3" fill="#172028"><title>2026-01-16 · 0 contributions</title></rect><rect x="576" y="312" width="13" height="13" rx="3" fill="#172028"><title>2026-01-17 · 0 contributions</title></rect><rect x="596" y="192" width="13" height="13" rx="3" fill="#172028"><title>2026-01-18 · 0 contributions</title></rect><rect x="596" y="212" width="13" height="13" rx="3" fill="#172028"><title>2026-01-19 · 0 contributions</title></rect><rect x="596" y="232" width="13" height="13" rx="3" fill="#172028"><title>2026-01-20 · 0 contributions</title></rect><rect x="596" y="252" width="13" height="13" rx="3" fill="#172028"><title>2026-01-21 · 0 contributions</title></rect><rect x="596" y="272" width="13" height="13" rx="3" fill="#172028"><title>2026-01-22 · 0 contributions</title></rect><rect x="596" y="292" width="13" height="13" rx="3" fill="#172028"><title>2026-01-23 · 0 contributions</title></rect><rect x="596" y="312" width="13" height="13" rx="3" fill="#172028"><title>2026-01-24 · 0 contributions</title></rect><rect x="616" y="192" width="13" height="13" rx="3" fill="#172028"><title>2026-01-25 · 0 contributions</title></rect><rect x="616" y="212" width="13" height="13" rx="3" fill="#172028"><title>2026-01-26 · 0 contributions</title></rect><rect x="616" y="232" width="13" height="13" rx="3" fill="#172028"><title>2026-01-27 · 0 contributions</title></rect><rect x="616" y="252" width="13" height="13" rx="3" fill="#172028"><title>2026-01-28 · 0 contributions</title></rect><rect x="616" y="272" width="13" height="13" rx="3" fill="#172028"><title>2026-01-29 · 0 contributions</title></rect><rect x="616" y="292" width="13" height="13" rx="3" fill="#172028"><title>2026-01-30 · 0 contributions</title></rect><rect x="616" y="312" width="13" height="13" rx="3" fill="#172028"><title>2026-01-31 · 0 contributions</title></rect><rect x="636" y="192" width="13" height="13" rx="3" fill="#172028"><title>2026-02-01 · 0 contributions</title></rect><rect x="636" y="212" width="13" height="13" rx="3" fill="#172028"><title>2026-02-02 · 0 contributions</title></rect><rect x="636" y="232" width="13" height="13" rx="3" fill="#172028"><title>2026-02-03 · 0 contributions</title></rect><rect x="636" y="252" width="13" height="13" rx="3" fill="#172028"><title>2026-02-04 · 0 contributions</title></rect><rect x="636" y="272" width="13" height="13" rx="3" fill="#172028"><title>2026-02-05 · 0 contributions</title></rect><rect x="636" y="292" width="13" height="13" rx="3" fill="#172028"><title>2026-02-06 · 0 contributions</title></rect><rect x="636" y="312" width="13" height="13" rx="3" fill="#172028"><title>2026-02-07 · 0 contributions</title></rect><rect x="656" y="192" width="13" height="13" rx="3" fill="#172028"><title>2026-02-08 · 0 contributions</title></rect><rect x="656" y="212" width="13" height="13" rx="3" fill="#172028"><title>2026-02-09 · 0 contributions</title></rect><rect x="656" y="232" width="13" height="13" rx="3" fill="#172028"><title>2026-02-10 · 0 contributions</title></rect><rect x="656" y="252" width="13" height="13" rx="3" fill="#172028"><title>2026-02-11 · 0 contributions</title></rect><rect x="656" y="272" width="13" height="13" rx="3" fill="#172028"><title>2026-02-12 · 0 contributions</title></rect><rect x="656" y="292" width="13" height="13" rx="3" fill="#172028"><title>2026-02-13 · 0 contributions</title></rect><rect x="656" y="312" width="13" height="13" rx="3" fill="#172028"><title>2026-02-14 · 0 contributions</title></rect><rect x="676" y="192" width="13" height="13" rx="3" fill="#172028"><title>2026-02-15 · 0 contributions</title></rect><rect x="676" y="212" width="13" height="13" rx="3" fill="#172028"><title>2026-02-16 · 0 contributions</title></rect><rect x="676" y="232" width="13" height="13" rx="3" fill="#172028"><title>2026-02-17 · 0 contributions</title></rect><rect x="676" y="252" width="13" height="13" rx="3" fill="#172028"><title>2026-02-18 · 0 contributions</title></rect><rect x="676" y="272" width="13" height="13" rx="3" fill="#172028"><title>2026-02-19 · 0 contributions</title></rect><rect x="676" y="292" width="13" height="13" rx="3" fill="#172028"><title>2026-02-20 · 0 contributions</title></rect><rect x="676" y="312" width="13" height="13" rx="3" fill="#172028"><title>2026-02-21 · 0 contributions</title></rect><rect x="696" y="192" width="13" height="13" rx="3" fill="#172028"><title>2026-02-22 · 0 contributions</title></rect><rect x="696" y="212" width="13" height="13" rx="3" fill="#172028"><title>2026-02-23 · 0 contributions</title></rect><rect x="696" y="232" width="13" height="13" rx="3" fill="#172028"><title>2026-02-24 · 0 contributions</title></rect><rect x="696" y="252" width="13" height="13" rx="3" fill="#172028"><title>2026-02-25 · 0 contributions</title></rect><rect x="696" y="272" width="13" height="13" rx="3" fill="#172028"><title>2026-02-26 · 0 contributions</title></rect><rect x="696" y="292" width="13" height="13" rx="3" fill="#172028"><title>2026-02-27 · 0 contributions</title></rect><rect x="696" y="312" width="13" height="13" rx="3" fill="#172028"><title>2026-02-28 · 0 contributions</title></rect><rect x="716" y="192" width="13" height="13" rx="3" fill="#172028"><title>2026-03-01 · 0 contributions</title></rect><rect x="716" y="212" width="13" height="13" rx="3" fill="#172028"><title>2026-03-02 · 0 contributions</title></rect><rect x="716" y="232" width="13" height="13" rx="3" fill="#172028"><title>2026-03-03 · 0 contributions</title></rect><rect x="716" y="252" width="13" height="13" rx="3" fill="#172028"><title>2026-03-04 · 0 contributions</title></rect><rect x="716" y="272" width="13" height="13" rx="3" fill="#172028"><title>2026-03-05 · 0 contributions</title></rect><rect x="716" y="292" width="13" height="13" rx="3" fill="#172028"><title>2026-03-06 · 0 contributions</title></rect><rect x="716" y="312" width="13" height="13" rx="3" fill="#172028"><title>2026-03-07 · 0 contributions</title></rect><rect x="736" y="192" width="13" height="13" rx="3" fill="#172028"><title>2026-03-08 · 0 contributions</title></rect><rect x="736" y="212" width="13" height="13" rx="3" fill="#172028"><title>2026-03-09 · 0 contributions</title></rect><rect x="736" y="232" width="13" height="13" rx="3" fill="#172028"><title>2026-03-10 · 0 contributions</title></rect><rect x="736" y="252" width="13" height="13" rx="3" fill="#172028"><title>2026-03-11 · 0 contributions</title></rect><rect x="736" y="272" width="13" height="13" rx="3" fill="#172028"><title>2026-03-12 · 0 contributions</title></rect><rect x="736" y="292" width="13" height="13" rx="3" fill="#172028"><title>2026-03-13 · 0 contributions</title></rect><rect x="736" y="312" width="13" height="13" rx="3" fill="#172028"><title>2026-03-14 · 0 contributions</title></rect><rect x="756" y="192" width="13" height="13" rx="3" fill="#172028"><title>2026-03-15 · 0 contributions</title></rect><rect x="756" y="212" width="13" height="13" rx="3" fill="#172028"><title>2026-03-16 · 0 contributions</title></rect><rect x="756" y="232" width="13" height="13" rx="3" fill="#172028"><title>2026-03-17 · 0 contributions</title></rect><rect x="756" y="252" width="13" height="13" rx="3" fill="#172028"><title>2026-03-18 · 0 contributions</title></rect><rect x="756" y="272" width="13" height="13" rx="3" fill="#172028"><title>2026-03-19 · 0 contributions</title></rect><rect x="756" y="292" width="13" height="13" rx="3" fill="#172028"><title>2026-03-20 · 0 contributions</title></rect><rect x="756" y="312" width="13" height="13" rx="3" fill="#172028"><title>2026-03-21 · 0 contributions</title></rect><rect x="776" y="192" width="13" height="13" rx="3" fill="#172028"><title>2026-03-22 · 0 contributions</title></rect><rect x="776" y="212" width="13" height="13" rx="3" fill="#172028"><title>2026-03-23 · 0 contributions</title></rect><rect x="776" y="232" width="13" height="13" rx="3" fill="#172028"><title>2026-03-24 · 0 contributions</title></rect><rect x="776" y="252" width="13" height="13" rx="3" fill="#172028"><title>2026-03-25 · 0 contributions</title></rect><rect x="776" y="272" width="13" height="13" rx="3" fill="#172028"><title>2026-03-26 · 0 contributions</title></rect><rect x="776" y="292" width="13" height="13" rx="3" fill="#172028"><title>2026-03-27 · 0 contributions</title></rect><rect x="776" y="312" width="13" height="13" rx="3" fill="#172028"><title>2026-03-28 · 0 contributions</title></rect><rect x="796" y="192" width="13" height="13" rx="3" fill="#172028"><title>2026-03-29 · 0 contributions</title></rect><rect x="796" y="212" width="13" height="13" rx="3" fill="#172028"><title>2026-03-30 · 0 contributions</title></rect><rect x="796" y="232" width="13" height="13" rx="3" fill="#172028"><title>2026-03-31 · 0 contributions</title></rect><rect x="796" y="252" width="13" height="13" rx="3" fill="#172028"><title>2026-04-01 · 0 contributions</title></rect><rect x="796" y="272" width="13" height="13" rx="3" fill="#172028"><title>2026-04-02 · 0 contributions</title></rect><rect x="796" y="292" width="13" height="13" rx="3" fill="#172028"><title>2026-04-03 · 0 contributions</title></rect><rect x="796" y="312" width="13" height="13" rx="3" fill="#172028"><title>2026-04-04 · 0 contributions</title></rect><rect x="816" y="192" width="13" height="13" rx="3" fill="#172028"><title>2026-04-05 · 0 contributions</title></rect><rect x="816" y="212" width="13" height="13" rx="3" fill="#172028"><title>2026-04-06 · 0 contributions</title></rect><rect x="816" y="232" width="13" height="13" rx="3" fill="#172028"><title>2026-04-07 · 0 contributions</title></rect><rect x="816" y="252" width="13" height="13" rx="3" fill="#172028"><title>2026-04-08 · 0 contributions</title></rect><rect x="816" y="272" width="13" height="13" rx="3" fill="#172028"><title>2026-04-09 · 0 contributions</title></rect><rect x="816" y="292" width="13" height="13" rx="3" fill="#172028"><title>2026-04-10 · 0 contributions</title></rect><rect x="816" y="312" width="13" height="13" rx="3" fill="#172028"><title>2026-04-11 · 0 contributions</title></rect><rect x="836" y="192" width="13" height="13" rx="3" fill="#172028"><title>2026-04-12 · 0 contributions</title></rect><rect x="836" y="212" width="13" height="13" rx="3" fill="#172028"><title>2026-04-13 · 0 contributions</title></rect><rect x="836" y="232" width="13" height="13" rx="3" fill="#172028"><title>2026-04-14 · 0 contributions</title></rect><rect x="836" y="252" width="13" height="13" rx="3" fill="#172028"><title>2026-04-15 · 0 contributions</title></rect><rect x="836" y="272" width="13" height="13" rx="3" fill="#172028"><title>2026-04-16 · 0 contributions</title></rect><rect x="836" y="292" width="13" height="13" rx="3" fill="#172028"><title>2026-04-17 · 0 contributions</title></rect><rect x="836" y="312" width="13" height="13" rx="3" fill="#172028"><title>2026-04-18 · 0 contributions</title></rect><rect x="856" y="192" width="13" height="13" rx="3" fill="#172028"><title>2026-04-19 · 0 contributions</title></rect><rect x="856" y="212" width="13" height="13" rx="3" fill="#172028"><title>2026-04-20 · 0 contributions</title></rect><rect x="856" y="232" width="13" height="13" rx="3" fill="#172028"><title>2026-04-21 · 0 contributions</title></rect><rect x="856" y="252" width="13" height="13" rx="3" fill="#172028"><title>2026-04-22 · 0 contributions</title></rect><rect x="856" y="272" width="13" height="13" rx="3" fill="#172028"><title>2026-04-23 · 0 contributions</title></rect><rect x="856" y="292" width="13" height="13" rx="3" fill="#172028"><title>2026-04-24 · 0 contributions</title></rect><rect x="856" y="312" width="13" height="13" rx="3" fill="#172028"><title>2026-04-25 · 0 contributions</title></rect><rect x="876" y="192" width="13" height="13" rx="3" fill="#172028"><title>2026-04-26 · 0 contributions</title></rect><rect x="876" y="212" width="13" height="13" rx="3" fill="#172028"><title>2026-04-27 · 0 contributions</title></rect><rect x="876" y="232" width="13" height="13" rx="3" fill="#172028"><title>2026-04-28 · 0 contributions</title></rect><rect x="876" y="252" width="13" height="13" rx="3" fill="#172028"><title>2026-04-29 · 0 contributions</title></rect><rect x="876" y="272" width="13" height="13" rx="3" fill="#172028"><title>2026-04-30 · 0 contributions</title></rect><rect x="876" y="292" width="13" height="13" rx="3" fill="#172028"><title>2026-05-01 · 0 contributions</title></rect><rect x="876" y="312" width="13" height="13" rx="3" fill="#172028"><title>2026-05-02 · 0 contributions</title></rect><rect x="896" y="192" width="13" height="13" rx="3" fill="#172028"><title>2026-05-03 · 0 contributions</title></rect><rect x="896" y="212" width="13" height="13" rx="3" fill="#172028"><title>2026-05-04 · 0 contributions</title></rect><rect x="896" y="232" width="13" height="13" rx="3" fill="#172028"><title>2026-05-05 · 0 contributions</title></rect><rect x="896" y="252" width="13" height="13" rx="3" fill="#172028"><title>2026-05-06 · 0 contributions</title></rect><rect x="896" y="272" width="13" height="13" rx="3" fill="#172028"><title>2026-05-07 · 0 contributions</title></rect><rect x="896" y="292" width="13" height="13" rx="3" fill="#172028"><title>2026-05-08 · 0 contributions</title></rect><rect x="896" y="312" width="13" height="13" rx="3" fill="#172028"><title>2026-05-09 · 0 contributions</title></rect><rect x="916" y="192" width="13" height="13" rx="3" fill="#172028"><title>2026-05-10 · 0 contributions</title></rect><rect x="916" y="212" width="13" height="13" rx="3" fill="#172028"><title>2026-05-11 · 0 contributions</title></rect><rect x="916" y="232" width="13" height="13" rx="3" fill="#172028"><title>2026-05-12 · 0 contributions</title></rect><rect x="916" y="252" width="13" height="13" rx="3" fill="#172028"><title>2026-05-13 · 0 contributions</title></rect><rect x="916" y="272" width="13" height="13" rx="3" fill="#172028"><title>2026-05-14 · 0 contributions</title></rect><rect x="916" y="292" width="13" height="13" rx="3" fill="#172028"><title>2026-05-15 · 0 contributions</title></rect><rect x="916" y="312" width="13" height="13" rx="3" fill="#172028"><title>2026-05-16 · 0 contributions</title></rect><rect x="936" y="192" width="13" height="13" rx="3" fill="#172028"><title>2026-05-17 · 0 contributions</title></rect><rect x="936" y="212" width="13" height="13" rx="3" fill="#172028"><title>2026-05-18 · 0 contributions</title></rect><rect x="936" y="232" width="13" height="13" rx="3" fill="#172028"><title>2026-05-19 · 0 contributions</title></rect><rect x="936" y="252" width="13" height="13" rx="3" fill="#172028"><title>2026-05-20 · 0 contributions</title></rect><rect x="936" y="272" width="13" height="13" rx="3" fill="#172028"><title>2026-05-21 · 0 contributions</title></rect><rect x="936" y="292" width="13" height="13" rx="3" fill="#172028"><title>2026-05-22 · 0 contributions</title></rect><rect x="936" y="312" width="13" height="13" rx="3" fill="#172028"><title>2026-05-23 · 0 contributions</title></rect><rect x="956" y="192" width="13" height="13" rx="3" fill="#172028"><title>2026-05-24 · 0 contributions</title></rect><rect x="956" y="212" width="13" height="13" rx="3" fill="#172028"><title>2026-05-25 · 0 contributions</title></rect><rect x="956" y="232" width="13" height="13" rx="3" fill="#172028"><title>2026-05-26 · 0 contributions</title></rect><rect x="956" y="252" width="13" height="13" rx="3" fill="#172028"><title>2026-05-27 · 0 contributions</title></rect><rect x="956" y="272" width="13" height="13" rx="3" fill="#172028"><title>2026-05-28 · 0 contributions</title></rect><rect x="956" y="292" width="13" height="13" rx="3" fill="#172028"><title>2026-05-29 · 0 contributions</title></rect><rect x="956" y="312" width="13" height="13" rx="3" fill="#172028"><title>2026-05-30 · 0 contributions</title></rect><rect x="976" y="192" width="13" height="13" rx="3" fill="#172028"><title>2026-05-31 · 0 contributions</title></rect><rect x="976" y="212" width="13" height="13" rx="3" fill="#172028"><title>2026-06-01 · 0 contributions</title></rect><rect x="976" y="232" width="13" height="13" rx="3" fill="#172028"><title>2026-06-02 · 0 contributions</title></rect><rect x="976" y="252" width="13" height="13" rx="3" fill="#172028"><title>2026-06-03 · 0 contributions</title></rect><rect x="976" y="272" width="13" height="13" rx="3" fill="#172028"><title>2026-06-04 · 0 contributions</title></rect><rect x="976" y="292" width="13" height="13" rx="3" fill="#172028"><title>2026-06-05 · 0 contributions</title></rect><rect x="976" y="312" width="13" height="13" rx="3" fill="#172028"><title>2026-06-06 · 0 contributions</title></rect><rect x="996" y="192" width="13" height="13" rx="3" fill="#172028"><title>2026-06-07 · 0 contributions</title></rect><rect x="996" y="212" width="13" height="13" rx="3" fill="#172028"><title>2026-06-08 · 0 contributions</title></rect><rect x="996" y="232" width="13" height="13" rx="3" fill="#172028"><title>2026-06-09 · 0 contributions</title></rect><rect x="996" y="252" width="13" height="13" rx="3" fill="#172028"><title>2026-06-10 · 0 contributions</title></rect><rect x="996" y="272" width="13" height="13" rx="3" fill="#172028"><title>2026-06-11 · 0 contributions</title></rect><rect x="996" y="292" width="13" height="13" rx="3" fill="#172028"><title>2026-06-12 · 0 contributions</title></rect><rect x="996" y="312" width="13" height="13" rx="3" fill="#172028"><title>2026-06-13 · 0 contributions</title></rect><rect x="1016" y="192" width="13" height="13" rx="3" fill="#172028"><title>2026-06-14 · 0 contributions</title></rect><rect x="1016" y="212" width="13" height="13" rx="3" fill="#172028"><title>2026-06-15 · 0 contributions</title></rect><rect x="1016" y="232" width="13" height="13" rx="3" fill="#172028"><title>2026-06-16 · 0 contributions</title></rect><rect x="1016" y="252" width="13" height="13" rx="3" fill="#172028"><title>2026-06-17 · 0 contributions</title></rect><rect x="1016" y="272" width="13" height="13" rx="3" fill="#172028"><title>2026-06-18 · 0 contributions</title></rect><rect x="1016" y="292" width="13" height="13" rx="3" fill="#172028"><title>2026-06-19 · 0 contributions</title></rect><rect x="1016" y="312" width="13" height="13" rx="3" fill="#172028"><title>2026-06-20 · 0 contributions</title></rect><rect x="1036" y="192" width="13" height="13" rx="3" fill="#172028"><title>2026-06-21 · 0 contributions</title></rect><rect x="1036" y="212" width="13" height="13" rx="3" fill="#172028"><title>2026-06-22 · 0 contributions</title></rect><rect x="1036" y="232" width="13" height="13" rx="3" fill="#172028"><title>2026-06-23 · 0 contributions</title></rect><rect x="1036" y="252" width="13" height="13" rx="3" fill="#172028"><title>2026-06-24 · 0 contributions</title></rect><rect x="1036" y="272" width="13" height="13" rx="3" fill="#172028"><title>2026-06-25 · 0 contributions</title></rect><rect x="1036" y="292" width="13" height="13" rx="3" fill="#172028"><title>2026-06-26 · 0 contributions</title></rect><rect x="1036" y="312" width="13" height="13" rx="3" fill="#172028"><title>2026-06-27 · 0 contributions</title></rect><rect x="1056" y="192" width="13" height="13" rx="3" fill="#172028"><title>2026-06-28 · 0 contributions</title></rect><rect x="1056" y="212" width="13" height="13" rx="3" fill="#172028"><title>2026-06-29 · 0 contributions</title></rect><rect x="1056" y="232" width="13" height="13" rx="3" fill="#172028"><title>2026-06-30 · 0 contributions</title></rect><rect x="1056" y="252" width="13" height="13" rx="3" fill="#172028"><title>2026-07-01 · 0 contributions</title></rect><rect x="1056" y="272" width="13" height="13" rx="3" fill="#172028"><title>2026-07-02 · 0 contributions</title></rect><rect x="1056" y="292" width="13" height="13" rx="3" fill="#172028"><title>2026-07-03 · 0 contributions</title></rect><rect x="1056" y="312" width="13" height="13" rx="3" fill="#172028"><title>2026-07-04 · 0 contributions</title></rect><rect x="1076" y="192" width="13" height="13" rx="3" fill="#172028"><title>2026-07-05 · 0 contributions</title></rect><rect x="1076" y="212" width="13" height="13" rx="3" fill="#172028"><title>2026-07-06 · 0 contributions</title></rect><rect x="1076" y="232" width="13" height="13" rx="3" fill="#172028"><title>2026-07-07 · 0 contributions</title></rect><rect x="1076" y="252" width="13" height="13" rx="3" fill="#172028"><title>2026-07-08 · 0 contributions</title></rect><rect x="1076" y="272" width="13" height="13" rx="3" fill="#172028"><title>2026-07-09 · 0 contributions</title></rect><rect x="1076" y="292" width="13" height="13" rx="3" fill="#172028"><title>2026-07-10 · 0 contributions</title></rect><rect x="1076" y="312" width="13" height="13" rx="3" fill="#172028"><title>2026-07-11 · 0 contributions</title></rect><rect x="1096" y="192" width="13" height="13" rx="3" fill="#172028"><title>2026-07-12 · 0 contributions</title></rect><rect x="1096" y="212" width="13" height="13" rx="3" fill="#172028"><title>2026-07-13 · 0 contributions</title></rect><rect x="1096" y="232" width="13" height="13" rx="3" fill="#172028"><title>2026-07-14 · 0 contributions</title></rect><rect x="1096" y="252" width="13" height="13" rx="3" fill="#16614F"><title>2026-07-15 · 3 contributions</title></rect><rect x="1096" y="272" width="13" height="13" rx="3" fill="#172028"><title>2026-07-16 · 0 contributions</title></rect><rect x="1096" y="292" width="13" height="13" rx="3" fill="#172028"><title>2026-07-17 · 0 contributions</title></rect><rect x="1096" y="312" width="13" height="13" rx="3" fill="#172028"><title>2026-07-18 · 0 contributions</title></rect>
  <circle cx="56" cy="352" r="5" fill="#2AD7B5"/>
  <text x="72" y="356" fill="#96A4B2" font-family="Inter, ui-sans-serif, system-ui, sans-serif" font-size="11">Verified refresh 2026-07-21 11:25 UTC · repository-owned generator</text>
</svg>
