<svg xmlns="http://www.w3.org/2000/svg" width="1200" height="360" viewBox="0 0 1200 360" role="img" aria-labelledby="title desc">
  <title id="title">GONZO SYSTEMS</title>
  <desc id="desc">Autonomous engineering, local-first infrastructure, and proof-native execution.</desc>
  <defs>
    <linearGradient id="bg" x1="0" y1="0" x2="1" y2="1">
      <stop offset="0" stop-color="#F5F7FA"/>
      <stop offset="0.55" stop-color="#FFFFFF"/>
      <stop offset="1" stop-color="#F5F7FA"/>
    </linearGradient>
    <radialGradient id="field" cx="70%" cy="42%" r="55%">
      <stop offset="0" stop-color="#D7F0EB" stop-opacity="0.85"/>
      <stop offset="1" stop-color="#D7F0EB" stop-opacity="0"/>
    </radialGradient>
    <linearGradient id="line" x1="0" y1="0" x2="1" y2="0">
      <stop offset="0" stop-color="#087C6B" stop-opacity="0"/>
      <stop offset="0.22" stop-color="#087C6B" stop-opacity="0.35"/>
      <stop offset="0.5" stop-color="#087C6B"/>
      <stop offset="0.78" stop-color="#087C6B" stop-opacity="0.35"/>
      <stop offset="1" stop-color="#087C6B" stop-opacity="0"/>
    </linearGradient>
  </defs>

  <rect width="1200" height="360" rx="18" fill="url(#bg)"/>
  <rect x="1" y="1" width="1198" height="358" rx="17" fill="none" stroke="#C9D3DC"/>
  <rect width="1200" height="360" rx="18" fill="url(#field)"/>

  <g opacity="0.45" stroke="#C9D3DC">
    <path d="M0 72H1200"/>
    <path d="M0 288H1200"/>
    <path d="M96 0V360"/>
    <path d="M1104 0V360"/>
  </g>

  <g transform="translate(88 74)">
    <rect width="42" height="42" rx="9" fill="#087C6B" fill-opacity="0.12" stroke="#087C6B"/>
    <path d="M13 25V17l8-5 8 5v8l-8 5-8-5Z" fill="none" stroke="#087C6B" stroke-width="2"/>
    <path d="M21 12v18M13 17l16 8M29 17l-16 8" stroke="#087C6B" stroke-width="1.5" opacity="0.72"/>
  </g>

  <text x="154" y="101" fill="#556270" font-family="ui-monospace, SFMono-Regular, Consolas, monospace" font-size="14" letter-spacing="3">GONZO // SYSTEMS</text>
  <text x="88" y="173" fill="#141A22" font-family="Inter, ui-sans-serif, system-ui, sans-serif" font-size="50" font-weight="700" letter-spacing="-1.5">Engineering systems that prove</text>
  <text x="88" y="226" fill="#141A22" font-family="Inter, ui-sans-serif, system-ui, sans-serif" font-size="50" font-weight="700" letter-spacing="-1.5">what they actually did.</text>
  <text x="90" y="272" fill="#556270" font-family="Inter, ui-sans-serif, system-ui, sans-serif" font-size="18">Autonomous engineering · Local-first infrastructure · Runtime evidence · Native products</text>

  <rect x="88" y="311" width="1024" height="2" rx="1" fill="url(#line)"/>
  <g transform="translate(88 304)">
    <circle cx="140" cy="8" r="5" fill="#087C6B"/>
    <circle cx="340" cy="8" r="5" fill="#087C6B" fill-opacity="0.75"/>
    <circle cx="540" cy="8" r="5" fill="#087C6B" fill-opacity="0.55"/>
    <circle cx="740" cy="8" r="5" fill="#087C6B" fill-opacity="0.35"/>
    <circle cx="940" cy="8" r="5" fill="#087C6B" fill-opacity="0.18"/>
  </g>
</svg>
