<svg xmlns="http://www.w3.org/2000/svg" width="1200" height="630" viewBox="0 0 1200 630" role="img" aria-labelledby="title desc">
<title id="title">GONZO // SYSTEMS — APEX Profile OS</title>
<desc id="desc">Engineering systems that remain truthful under pressure.</desc>
<defs>
  <linearGradient id="bg" x1="0" y1="0" x2="1" y2="1"><stop stop-color="#05080b"/><stop offset=".52" stop-color="#0c151a"/><stop offset="1" stop-color="#05080b"/></linearGradient>
  <radialGradient id="f" cx="72%" cy="38%" r="54%"><stop stop-color="#2ad7b5" stop-opacity=".2"/><stop offset="1" stop-color="#2ad7b5" stop-opacity="0"/></radialGradient>
  <linearGradient id="t" x1="0" y1="0" x2="1" y2="0"><stop stop-color="#f5f7f8"/><stop offset=".58" stop-color="#2ad7b5"/><stop offset="1" stop-color="#75baff"/></linearGradient>
</defs>
<rect width="1200" height="630" fill="url(#bg)"/>
<rect x="1" y="1" width="1198" height="628" fill="none" stroke="#26333e"/>
<rect width="1200" height="630" fill="url(#f)"/>
<g stroke="#26333e" opacity=".45"><path d="M0 92H1200M0 538H1200"/><path d="M92 0V630M1108 0V630"/></g>
<g transform="translate(88 68)"><rect width="46" height="46" rx="12" fill="#2ad7b5" fill-opacity=".1" stroke="#2ad7b5"/><path d="M13 27V19l10-6 10 6v8l-10 6-10-6Z" fill="none" stroke="#2ad7b5" stroke-width="2"/><path d="M23 13v20M13 19l20 8M33 19l-20 8" stroke="#2ad7b5" stroke-width="1.4" opacity=".7"/></g>
<text x="154" y="97" fill="#8d9aa5" font-family="ui-monospace,Consolas,monospace" font-size="15" letter-spacing="3">GONZO // SYSTEMS</text>
<text x="88" y="226" fill="#f5f7f8" font-family="Inter,system-ui,sans-serif" font-size="68" font-weight="750" letter-spacing="-2.3">Engineering systems</text>
<text x="88" y="302" fill="url(#t)" font-family="Inter,system-ui,sans-serif" font-size="68" font-weight="750" letter-spacing="-2.3">truthful under pressure.</text>
<text x="90" y="356" fill="#9aa8b6" font-family="Inter,system-ui,sans-serif" font-size="20">Autonomous AI · Mobility · Blockchain · Native DSP · RF sensing · Proof architecture</text>
<g transform="translate(90 426)" font-family="ui-monospace,Consolas,monospace" font-size="12">
<circle cx="6" cy="7" r="5" fill="#2ad7b5"/><text x="22" y="11" fill="#f5f7f8">ACTIVE DEVELOPMENT</text><text x="224" y="11" fill="#9aa8b6">MAYA 6.6.1</text><text x="346" y="11" fill="#9aa8b6">09 SYSTEMS</text><text x="462" y="11" fill="#9aa8b6">PROFILE OS / APEX</text>
</g>
<path d="M90 504H1110" stroke="#2ad7b5" stroke-opacity=".48"/><g fill="#2ad7b5"><circle cx="220" cy="504" r="5"/><circle cx="420" cy="504" r="5" opacity=".75"/><circle cx="620" cy="504" r="5" opacity=".55"/><circle cx="820" cy="504" r="5" opacity=".35"/><circle cx="1010" cy="504" r="5" opacity=".18"/></g>
<text x="90" y="574" fill="#687782" font-family="ui-monospace,Consolas,monospace" font-size="11" letter-spacing="1.6">BUILD LOCALLY · VERIFY EVERYTHING · SHIP WITH EVIDENCE</text>
</svg>
