<svg xmlns="http://www.w3.org/2000/svg" width="1200" height="540" viewBox="0 0 1200 540" role="img" aria-labelledby="title desc"><title id="title">Engineering capability maturity</title><desc id="desc">Capability matrix showing research, prototype, integrated, and verified maturity.</desc><rect width="1200" height="540" rx="18" fill="#F5F7FA"/><rect x="1" y="1" width="1198" height="538" rx="17" fill="none" stroke="#C9D3DC"/><text x="56" y="50" fill="#5D6B78" font-family="ui-monospace,SFMono-Regular,Consolas,monospace" font-size="11" letter-spacing="2">CAPABILITY MATURITY</text><text x="650" y="82" text-anchor="middle" fill="#5D6B78" font-family="ui-monospace,SFMono-Regular,Consolas,monospace" font-size="9.5" letter-spacing="1">RESEARCH</text><text x="790" y="82" text-anchor="middle" fill="#5D6B78" font-family="ui-monospace,SFMono-Regular,Consolas,monospace" font-size="9.5" letter-spacing="1">PROTOTYPE</text><text x="930" y="82" text-anchor="middle" fill="#5D6B78" font-family="ui-monospace,SFMono-Regular,Consolas,monospace" font-size="9.5" letter-spacing="1">INTEGRATED</text><text x="1070" y="82" text-anchor="middle" fill="#5D6B78" font-family="ui-monospace,SFMono-Regular,Consolas,monospace" font-size="9.5" letter-spacing="1">VERIFIED</text><path d="M56 96H1144" stroke="#C9D3DC"/><text x="56" y="128" fill="#141A22" font-family="Inter,ui-sans-serif,system-ui,sans-serif" font-size="13">Autonomous runtime</text><circle cx="650" cy="123" r="7" fill="#087C6B" stroke="#087C6B"/><circle cx="790" cy="123" r="7" fill="#087C6B" stroke="#087C6B"/><circle cx="930" cy="123" r="7" fill="#087C6B" stroke="#087C6B"/><circle cx="1070" cy="123" r="7" fill="#087C6B" stroke="#087C6B"/><text x="56" y="175" fill="#141A22" font-family="Inter,ui-sans-serif,system-ui,sans-serif" font-size="13">Mobility platform</text><circle cx="650" cy="170" r="7" fill="#087C6B" stroke="#087C6B"/><circle cx="790" cy="170" r="7" fill="#087C6B" stroke="#087C6B"/><circle cx="930" cy="170" r="7" fill="#087C6B" stroke="#087C6B"/><circle cx="1070" cy="170" r="7" fill="#EDF2F5" stroke="#C9D3DC"/><text x="56" y="222" fill="#141A22" font-family="Inter,ui-sans-serif,system-ui,sans-serif" font-size="13">Realtime interaction</text><circle cx="650" cy="217" r="7" fill="#087C6B" stroke="#087C6B"/><circle cx="790" cy="217" r="7" fill="#087C6B" stroke="#087C6B"/><circle cx="930" cy="217" r="7" fill="#087C6B" stroke="#087C6B"/><circle cx="1070" cy="217" r="7" fill="#087C6B" stroke="#087C6B"/><text x="56" y="269" fill="#141A22" font-family="Inter,ui-sans-serif,system-ui,sans-serif" font-size="13">Native DSP</text><circle cx="650" cy="264" r="7" fill="#087C6B" stroke="#087C6B"/><circle cx="790" cy="264" r="7" fill="#087C6B" stroke="#087C6B"/><circle cx="930" cy="264" r="7" fill="#087C6B" stroke="#087C6B"/><circle cx="1070" cy="264" r="7" fill="#EDF2F5" stroke="#C9D3DC"/><text x="56" y="316" fill="#141A22" font-family="Inter,ui-sans-serif,system-ui,sans-serif" font-size="13">RF sensing</text><circle cx="650" cy="311" r="7" fill="#087C6B" stroke="#087C6B"/><circle cx="790" cy="311" r="7" fill="#087C6B" stroke="#087C6B"/><circle cx="930" cy="311" r="7" fill="#EDF2F5" stroke="#C9D3DC"/><circle cx="1070" cy="311" r="7" fill="#EDF2F5" stroke="#C9D3DC"/><text x="56" y="363" fill="#141A22" font-family="Inter,ui-sans-serif,system-ui,sans-serif" font-size="13">Recovery/forensics</text><circle cx="650" cy="358" r="7" fill="#087C6B" stroke="#087C6B"/><circle cx="790" cy="358" r="7" fill="#087C6B" stroke="#087C6B"/><circle cx="930" cy="358" r="7" fill="#087C6B" stroke="#087C6B"/><circle cx="1070" cy="358" r="7" fill="#087C6B" stroke="#087C6B"/><text x="56" y="410" fill="#141A22" font-family="Inter,ui-sans-serif,system-ui,sans-serif" font-size="13">UI quality automation</text><circle cx="650" cy="405" r="7" fill="#087C6B" stroke="#087C6B"/><circle cx="790" cy="405" r="7" fill="#087C6B" stroke="#087C6B"/><circle cx="930" cy="405" r="7" fill="#087C6B" stroke="#087C6B"/><circle cx="1070" cy="405" r="7" fill="#087C6B" stroke="#087C6B"/><text x="56" y="457" fill="#141A22" font-family="Inter,ui-sans-serif,system-ui,sans-serif" font-size="13">Blockchain systems</text><circle cx="650" cy="452" r="7" fill="#087C6B" stroke="#087C6B"/><circle cx="790" cy="452" r="7" fill="#087C6B" stroke="#087C6B"/><circle cx="930" cy="452" r="7" fill="#EDF2F5" stroke="#C9D3DC"/><circle cx="1070" cy="452" r="7" fill="#EDF2F5" stroke="#C9D3DC"/><text x="56" y="511" fill="#5D6B78" font-family="Inter,ui-sans-serif,system-ui,sans-serif" font-size="11">Maturity is disclosed explicitly; research tracks are not represented as production systems.</text></svg>