<svg xmlns="http://www.w3.org/2000/svg" width="1200" height="430" viewBox="0 0 1200 430" role="img" aria-labelledby="title desc"><title id="title">GONZO // SYSTEMS</title><desc id="desc">Engineering systems that prove what they actually did.</desc>
<style>.pulse{animation:pulse 2.8s ease-in-out infinite;transform-origin:center}.drift{animation:drift 9s ease-in-out infinite alternate}.flow{stroke-dasharray:12 16;animation:flow 4.8s linear infinite}@keyframes pulse{0%,100%{opacity:.45}50%{opacity:1}}@keyframes drift{from{transform:translate3d(-8px,0,0)}to{transform:translate3d(10px,-5px,0)}}@keyframes flow{to{stroke-dashoffset:-56}}@media(prefers-reduced-motion:reduce){.pulse,.drift,.flow{animation:none}}</style>
<defs><linearGradient id="bg" x1="0" y1="0" x2="1" y2="1"><stop offset="0" stop-color="#F5F7FA"/><stop offset=".52" stop-color="#FFFFFF"/><stop offset="1" stop-color="#F5F7FA"/></linearGradient><radialGradient id="field" cx="74%" cy="44%" r="56%"><stop offset="0" stop-color="#087C6B" stop-opacity=".18"/><stop offset="1" stop-color="#087C6B" stop-opacity="0"/></radialGradient><linearGradient id="line" x1="0" y1="0" x2="1" y2="0"><stop offset="0" stop-color="#087C6B" stop-opacity="0"/><stop offset=".2" stop-color="#087C6B" stop-opacity=".38"/><stop offset=".5" stop-color="#087C6B"/><stop offset=".8" stop-color="#1769AA" stop-opacity=".38"/><stop offset="1" stop-color="#1769AA" stop-opacity="0"/></linearGradient></defs>
<rect width="1200" height="430" rx="20" fill="url(#bg)"/><rect x="1" y="1" width="1198" height="428" rx="19" fill="none" stroke="#C9D3DC"/><ellipse class="drift" cx="880" cy="188" rx="270" ry="170" fill="url(#field)"/>
<g opacity=".34" stroke="#C9D3DC"><path d="M0 74H1200"/><path d="M0 350H1200"/><path d="M88 0V430"/><path d="M1112 0V430"/></g>
<g transform="translate(88 59)"><rect width="44" height="44" rx="10" fill="#087C6B" fill-opacity=".10" stroke="#087C6B"/><path d="M13 26V18l9-6 9 6v8l-9 6-9-6Z" fill="none" stroke="#087C6B" stroke-width="2"/><path d="M22 12v20M13 18l18 8M31 18l-18 8" stroke="#087C6B" stroke-width="1.35" opacity=".68"/></g>
<text x="151" y="87" fill="#5D6B78" font-family="ui-monospace,SFMono-Regular,Consolas,monospace" font-size="13" letter-spacing="3">GONZO // SYSTEMS</text><text x="1110" y="87" text-anchor="end" fill="#5D6B78" font-family="ui-monospace,SFMono-Regular,Consolas,monospace" font-size="11" letter-spacing="1.6">SOFIA, BULGARIA</text>
<text x="88" y="174" fill="#141A22" font-family="Inter,ui-sans-serif,system-ui,sans-serif" font-size="49" font-weight="740" letter-spacing="-1.7">Engineering systems that prove</text><text x="88" y="228" fill="#141A22" font-family="Inter,ui-sans-serif,system-ui,sans-serif" font-size="49" font-weight="740" letter-spacing="-1.7">what they actually did.</text>
<text x="90" y="276" fill="#5D6B78" font-family="Inter,ui-sans-serif,system-ui,sans-serif" font-size="16">AUTONOMOUS AI · MOBILITY · BLOCKCHAIN · DSP · RF SENSING · FORENSICS · REALTIME UX</text>
<g transform="translate(88 315)" font-family="ui-monospace,SFMono-Regular,Consolas,monospace"><circle class="pulse" cx="6" cy="8" r="5" fill="#087C6B"/><text x="22" y="12" fill="#141A22" font-size="11" letter-spacing="1.1">ACTIVE DEVELOPMENT</text><text x="208" y="12" fill="#5D6B78" font-size="11">MAYA 6.6.1</text><text x="338" y="12" fill="#5D6B78" font-size="11">9 SYSTEMS</text><text x="456" y="12" fill="#5D6B78" font-size="11">VERIFIED PIPELINE</text></g>
<path class="flow" d="M88 370H1112" stroke="url(#line)" stroke-width="2"/><text x="88" y="403" fill="#5D6B78" font-family="Inter,ui-sans-serif,system-ui,sans-serif" font-size="12">Rust control plane, verified autonomous execution, and model orchestration</text></svg>